<svg xmlns="http://www.w3.org/2000/svg" viewBox="0 0 16 19" width="16" height="19">
	<style>
		tspan { white-space:pre }
		.shp0 { fill: #434343 } 
	</style>
	<path id="Pinterest-icon" class="shp0" d="M8.24 0.5C3.38 0.5 0.8 3.66 0.8 7.11C0.8 8.71 1.68 10.7 3.09 11.33C3.3 11.43 3.42 11.39 3.47 11.19C3.51 11.03 3.69 10.3 3.78 9.95C3.81 9.84 3.8 9.74 3.71 9.64C3.24 9.09 2.87 8.09 2.87 7.15C2.87 4.74 4.75 2.41 7.95 2.41C10.72 2.41 12.66 4.24 12.66 6.85C12.66 9.8 11.12 11.85 9.12 11.85C8.01 11.85 7.19 10.96 7.45 9.87C7.77 8.57 8.39 7.18 8.39 6.24C8.39 5.4 7.92 4.7 6.96 4.7C5.84 4.7 4.92 5.84 4.92 7.36C4.92 8.32 5.26 8.98 5.26 8.98C5.26 8.98 4.15 13.55 3.94 14.4C3.59 15.85 3.99 18.19 4.02 18.39C4.04 18.5 4.17 18.53 4.23 18.44C4.34 18.3 5.69 16.35 6.07 14.94C6.21 14.42 6.77 12.34 6.77 12.34C7.14 13.02 8.21 13.59 9.35 13.59C12.75 13.59 15.2 10.56 15.2 6.8C15.19 3.2 12.15 0.5 8.24 0.5Z" />
</svg>