<svg xmlns="http://www.w3.org/2000/svg" viewBox="0 0 46 30" width="46" height="30">
	<style>
		tspan { white-space:pre }
		.shp0 { fill: #ffffff } 
	</style>
	<g id="Footer">
		<g id="Footer">
			<g id="Payment">
				<path id="AMEX" class="shp0" d="M24.2 10.24C23.79 10.12 23.36 10.29 23.14 10.65L19.25 17.03L15.36 10.65C15.13 10.29 14.71 10.12 14.3 10.24C13.9 10.36 13.62 10.73 13.62 11.16L13.62 17.88L13.42 17.88L11.72 10.93C11.62 10.5 11.24 10.2 10.81 10.2L8.94 10.2C8.58 10.2 8.26 10.41 8.1 10.73L4.35 18.41C4.12 18.88 4.3 19.46 4.77 19.7C4.9 19.77 5.05 19.8 5.19 19.8C5.53 19.8 5.86 19.61 6.03 19.27L9.52 12.12L10.08 12.12L11.78 19.07C11.88 19.5 12.26 19.8 12.69 19.8L14.56 19.8C15.08 19.8 15.5 19.37 15.5 18.84L15.5 14.51L18.45 19.35C18.8 19.91 19.7 19.91 20.04 19.35L23 14.51L23 18.84C23 19.37 23.42 19.8 23.94 19.8C24.45 19.8 24.87 19.37 24.87 18.84L24.87 11.16C24.87 10.73 24.6 10.36 24.2 10.24ZM38.39 15L41.47 11.84C41.84 11.46 41.84 10.85 41.47 10.48C41.11 10.11 40.51 10.11 40.15 10.48L37.06 13.64L33.98 10.48C33.8 10.3 33.56 10.2 33.31 10.2L27.69 10.2C27.17 10.2 26.75 10.63 26.75 11.16L26.75 18.84C26.75 19.37 27.17 19.8 27.69 19.8L33.31 19.8C33.56 19.8 33.8 19.7 33.98 19.52L37.06 16.36L40.15 19.52C40.33 19.71 40.57 19.8 40.81 19.8C41.05 19.8 41.29 19.71 41.47 19.52C41.84 19.14 41.84 18.53 41.47 18.16L38.39 15ZM32.92 17.88L28.62 17.88L28.62 12.12L32.92 12.12L35.74 15L32.92 17.88ZM30.5 14.04L27.69 14.04C27.17 14.04 26.75 14.47 26.75 15C26.75 15.53 27.17 15.96 27.69 15.96L30.5 15.96C31.02 15.96 31.44 15.53 31.44 15C31.44 14.47 31.02 14.04 30.5 14.04ZM11.75 15.96L7.06 15.96C6.54 15.96 6.12 16.39 6.12 16.92C6.12 17.45 6.54 17.88 7.06 17.88L11.75 17.88C12.27 17.88 12.69 17.45 12.69 16.92C12.69 16.39 12.27 15.96 11.75 15.96ZM38.94 0.6L7.06 0.6C3.44 0.6 0.5 3.61 0.5 7.32L0.5 22.68C0.5 26.39 3.44 29.4 7.06 29.4L38.94 29.4C42.56 29.4 45.5 26.39 45.5 22.68L45.5 7.32C45.5 3.61 42.56 0.6 38.94 0.6ZM43.62 22.68C43.62 25.33 41.52 27.48 38.94 27.48L7.06 27.48C4.48 27.48 2.37 25.33 2.37 22.68L2.37 7.32C2.37 4.67 4.48 2.52 7.06 2.52L38.94 2.52C41.52 2.52 43.62 4.67 43.62 7.32L43.62 22.68Z" />
			</g>
		</g>
	</g>
</svg>