<svg xmlns="http://www.w3.org/2000/svg" viewBox="0 0 54 26" width="54" height="26">
	<style>
		tspan { white-space:pre }
		.shp0 { fill: #ffffff } 
	</style>
	<g id="Footer">
		<g id="Footer">
			<g id="Payment">
				<path id="Discover" class="shp0" d="M39.95 2.29L39.95 1.06L35.9 1.06L35.9 8.29L39.95 8.29L39.95 7.06L37.33 7.06L37.33 5.11L39.86 5.11L39.86 3.89L37.33 3.89L37.33 2.29L39.95 2.29ZM43.95 5.25C45.03 5.03 45.62 4.3 45.62 3.2C45.62 1.84 44.68 1.06 43.03 1.06L40.91 1.06L40.91 8.29L42.33 8.29L42.33 5.39L42.52 5.39L44.5 8.29L46.26 8.29L43.95 5.25ZM42.75 4.39L42.33 4.39L42.34 2.2L42.77 2.2C43.67 2.2 44.15 2.57 44.15 3.27C44.15 4 43.66 4.39 42.75 4.39ZM46.26 0.92C45.94 0.92 45.69 1.16 45.69 1.47C45.69 1.78 45.95 2.03 46.26 2.03C46.56 2.03 46.81 1.78 46.81 1.47C46.81 1.17 46.56 0.92 46.26 0.92ZM46.25 1.93C46.01 1.93 45.81 1.72 45.81 1.47C45.81 1.22 46.01 1.02 46.25 1.02C46.5 1.02 46.7 1.22 46.7 1.47C46.7 1.72 46.5 1.93 46.25 1.93ZM46.33 1.53C46.42 1.51 46.47 1.44 46.47 1.35C46.47 1.22 46.38 1.16 46.22 1.16L46.02 1.16L46.02 1.79L46.17 1.79L46.17 1.54L46.35 1.79L46.54 1.79L46.33 1.53ZM46.2 1.44L46.17 1.44L46.17 1.27L46.2 1.27C46.27 1.27 46.31 1.3 46.31 1.35C46.31 1.41 46.27 1.44 46.2 1.44ZM7.24 1.06L8.67 1.06L8.67 8.29L7.24 8.29L7.24 1.06ZM12.16 3.83C11.3 3.52 11.05 3.31 11.05 2.92C11.05 2.47 11.5 2.12 12.12 2.12C12.54 2.12 12.9 2.3 13.27 2.71L14.02 1.74C13.4 1.21 12.67 0.94 11.86 0.94C10.57 0.94 9.58 1.83 9.58 3.01C9.58 4.01 10.04 4.52 11.38 4.99C11.94 5.19 12.23 5.32 12.37 5.4C12.66 5.59 12.8 5.85 12.8 6.15C12.8 6.74 12.33 7.17 11.69 7.17C11.01 7.17 10.46 6.83 10.13 6.21L9.2 7.08C9.86 8.04 10.65 8.46 11.74 8.46C13.23 8.46 14.27 7.49 14.27 6.09C14.27 4.94 13.79 4.42 12.16 3.83ZM14.53 25.14L53.46 25.14L53.46 11.31C53.46 11.31 39.71 20.86 14.53 25.14ZM2.64 1.06L0.54 1.06L0.54 8.29L2.63 8.29C3.74 8.29 4.54 8.03 5.24 7.45C6.08 6.77 6.57 5.74 6.57 4.68C6.57 2.55 4.96 1.06 2.64 1.06ZM4.31 6.49C3.86 6.89 3.28 7.06 2.35 7.06L1.97 7.06L1.97 2.29L2.35 2.29C3.28 2.29 3.84 2.45 4.31 2.87C4.8 3.3 5.1 3.98 5.1 4.67C5.1 5.36 4.81 6.06 4.31 6.49ZM33.7 1.06L31.72 5.92L29.77 1.06L28.2 1.06L31.32 8.47L32.08 8.47L35.25 1.06L33.7 1.06ZM24.75 0.86C23.14 0.86 21.75 1.82 21.16 3.2C20.96 3.66 20.85 4.17 20.85 4.7C20.85 6.82 22.6 8.54 24.75 8.54C26.5 8.54 27.98 7.41 28.47 5.84C28.5 5.78 28.51 5.71 28.53 5.64C28.54 5.58 28.56 5.53 28.57 5.47C28.63 5.22 28.65 4.96 28.65 4.7C28.65 2.58 26.91 0.86 24.75 0.86ZM18.59 2.19C19.27 2.19 19.79 2.43 20.38 3L20.38 1.34C19.76 1.03 19.24 0.9 18.63 0.9C16.46 0.9 14.72 2.58 14.72 4.68C14.72 6.8 16.41 8.45 18.59 8.45C19.21 8.45 19.73 8.33 20.38 8.03L20.38 6.37C19.81 6.93 19.3 7.16 18.66 7.16C17.22 7.16 16.2 6.13 16.2 4.67C16.2 3.28 17.25 2.19 18.59 2.19Z" />
			</g>
		</g>
	</g>
</svg>