<svg xmlns="http://www.w3.org/2000/svg" viewBox="0 0 24 19" width="24" height="19">
	<style>
		tspan { white-space:pre }
		.shp0 { fill: #fba93d } 
	</style>
	<g id="Footer">
		<g id="Footer">
			<path id="Icon" class="shp0" d="M21.89 0.3L2.11 0.3C0.95 0.3 0 1.25 0 2.42L0 16.58C0 17.74 0.94 18.7 2.11 18.7L21.89 18.7C23.05 18.7 24 17.75 24 16.58L24 2.42C24 1.26 23.06 0.3 21.89 0.3ZM21.6 1.72L12.04 11.33L2.41 1.72L21.6 1.72ZM1.41 16.28L1.41 2.71L8.18 9.47L1.41 16.28ZM2.4 17.28L9.18 10.46L11.55 12.83C11.83 13.11 12.27 13.11 12.54 12.83L14.86 10.5L21.6 17.28L2.4 17.28ZM22.59 16.28L15.85 9.5L22.59 2.72L22.59 16.28Z" />
		</g>
	</g>
</svg>