<svg xmlns="http://www.w3.org/2000/svg" viewBox="0 0 34 26" width="34" height="26">
	<style>
		tspan { white-space:pre }
		.shp0 { fill: #ffffff } 
	</style>
	<g id="Footer">
		<g id="Footer">
			<g id="Payment">
				<path id="JCB" class="shp0" d="M22.19 0.02L22.15 0.02L22.11 0.02L22.07 0.02L22.03 0.02L21.99 0.02L21.94 0.02L21.9 0.02L21.86 0.02L21.82 0.02L21.78 0.02L21.74 0.02L21.7 0.02L21.66 0.02L21.62 0.02L21.58 0.02L21.54 0.02L21.5 0.02L21.45 0.02L21.41 0.02L21.37 0.02L21.33 0.02L21.29 0.02L21.25 0.02L21.21 0.02L21.17 0.02L21.13 0.02L21.09 0.02L21.05 0.02L21.01 0.02L20.96 0.02L20.92 0.02L20.88 0.02L20.84 0.02L20.8 0.02L20.76 0.02L20.72 0.02L20.68 0.02L20.63 0.02L20.59 0.02L20.55 0.02L20.51 0.02L20.47 0.02L20.43 0.02L20.39 0.02L20.35 0.02L20.31 0.02L20.27 0.02L20.23 0.02L20.19 0.02L20.15 0.02L20.11 0.02L20.07 0.02L20.02 0.02L19.98 0.02L19.94 0.02L19.9 0.02L19.86 0.02L19.82 0.02L19.78 0.02L19.74 0.02L19.7 0.02L19.65 0.02L19.61 0.02L19.57 0.02L19.53 0.02L19.49 0.02L19.45 0.02L19.41 0.02L19.37 0.02L19.32 0.02L19.28 0.02L19.24 0.02L19.2 0.02L19.16 0.02L19.12 0.02L19.08 0.02L19.04 0.02L19 0.02L18.95 0.02L18.91 0.02L18.87 0.02L18.84 0.02L18.8 0.02L18.76 0.02L18.71 0.02L18.67 0.02L18.63 0.02L18.59 0.02L18.55 0.02L18.51 0.02L18.47 0.02L18.43 0.02L18.39 0.02L18.35 0.02L18.31 0.02L18.26 0.02L18.22 0.02L18.18 0.02L18.14 0.02L18.1 0.02L18.06 0.02L18.02 0.02L17.98 0.02L17.94 0.02L17.9 0.02L17.86 0.02L17.81 0.02L17.77 0.02L17.73 0.02L17.69 0.02L17.65 0.02L17.61 0.02L17.57 0.02L17.53 0.02L17.49 0.02L17.45 0.02L17.41 0.02L17.37 0.02L17.32 0.02L17.28 0.02L17.24 0.02L17.2 0.02L17.16 0.02L17.12 0.02L17.08 0.02L17.04 0.02L17 0.02L16.96 0.02L16.92 0.02L16.88 0.02L16.83 0.02L16.79 0.02L16.75 0.02L16.71 0.02L16.67 0.02L16.63 0.02L16.59 0.02L16.55 0.02L16.51 0.02L16.46 0.02L16.42 0.02L16.38 0.02L16.34 0.02L16.3 0.02L16.26 0.02L16.22 0.02L16.18 0.02L16.14 0.02L16.1 0.02L16.06 0.02L16.02 0.02L15.99 0.02L15.98 0.02C15.96 0.02 15.95 0.02 15.93 0.02C15.92 0.02 15.91 0.02 15.89 0.02C15.88 0.02 15.87 0.02 15.85 0.02L15.81 0.02C15.8 0.02 15.78 0.02 15.77 0.03C15.76 0.03 15.74 0.03 15.73 0.03C15.72 0.03 15.7 0.03 15.69 0.03C15.67 0.03 15.66 0.03 15.65 0.03L15.61 0.04C15.59 0.04 15.58 0.04 15.56 0.04C15.55 0.04 15.54 0.04 15.52 0.04L15.48 0.05L15.44 0.05C15.43 0.05 15.41 0.06 15.4 0.06C15.39 0.06 15.37 0.06 15.36 0.06C15.35 0.07 15.33 0.07 15.32 0.07L15.28 0.08L15.24 0.09C15.22 0.09 15.21 0.09 15.2 0.09C15.18 0.1 15.17 0.1 15.15 0.1C15.14 0.1 15.13 0.11 15.11 0.11L15.07 0.12C15.06 0.12 15.05 0.13 15.03 0.13C15.02 0.13 15 0.14 14.99 0.14C14.98 0.14 14.96 0.15 14.95 0.15C14.94 0.15 14.92 0.16 14.91 0.16L14.87 0.17C14.85 0.18 14.84 0.18 14.83 0.18C14.81 0.19 14.8 0.19 14.79 0.2C14.77 0.2 14.76 0.2 14.75 0.21C14.73 0.21 14.72 0.22 14.7 0.22L14.66 0.24C14.65 0.24 14.64 0.24 14.62 0.25C14.61 0.25 14.59 0.26 14.58 0.26C14.57 0.27 14.55 0.27 14.54 0.28C14.52 0.28 14.51 0.29 14.5 0.3C14.48 0.3 14.47 0.31 14.46 0.31C14.44 0.32 14.43 0.32 14.41 0.33L14.37 0.34C14.36 0.35 14.35 0.36 14.33 0.36C14.32 0.37 14.31 0.37 14.29 0.38C14.28 0.39 14.27 0.39 14.25 0.4C14.24 0.4 14.22 0.41 14.21 0.42C14.2 0.42 14.18 0.43 14.17 0.44C14.15 0.44 14.14 0.45 14.13 0.46L14.09 0.48L14.05 0.5C14.03 0.51 14.02 0.51 14 0.52C13.99 0.53 13.98 0.53 13.96 0.54C13.95 0.55 13.94 0.56 13.92 0.57C13.91 0.57 13.89 0.58 13.88 0.59C13.87 0.59 13.85 0.6 13.84 0.61C13.83 0.62 13.81 0.63 13.8 0.64C13.78 0.65 13.77 0.65 13.76 0.66C13.74 0.67 13.73 0.68 13.72 0.69C13.7 0.7 13.69 0.71 13.68 0.72C13.66 0.72 13.65 0.73 13.63 0.74C13.62 0.75 13.61 0.76 13.59 0.77C13.58 0.78 13.57 0.79 13.55 0.8C13.54 0.81 13.52 0.82 13.51 0.83C13.5 0.84 13.48 0.85 13.47 0.86C13.46 0.87 13.44 0.88 13.43 0.89C13.41 0.9 13.4 0.91 13.39 0.92C13.37 0.93 13.36 0.94 13.35 0.96C13.33 0.97 13.32 0.98 13.31 0.99C13.29 1 13.28 1.01 13.26 1.03C13.25 1.04 13.24 1.05 13.22 1.06C13.21 1.07 13.2 1.08 13.18 1.1C13.17 1.11 13.15 1.12 13.14 1.14C13.13 1.15 13.11 1.16 13.1 1.17C13.09 1.19 13.07 1.2 13.06 1.21C13.04 1.23 13.03 1.24 13.02 1.25C13 1.27 12.99 1.28 12.98 1.3C12.96 1.31 12.95 1.32 12.94 1.34C12.92 1.35 12.91 1.37 12.89 1.38C12.88 1.4 12.87 1.41 12.85 1.43C12.84 1.44 12.83 1.46 12.81 1.47C12.8 1.49 12.79 1.5 12.77 1.52C12.76 1.54 12.75 1.55 12.73 1.57C12.72 1.59 12.7 1.6 12.69 1.62C12.68 1.64 12.66 1.65 12.65 1.67C12.63 1.69 12.62 1.71 12.61 1.73C12.59 1.75 12.58 1.76 12.57 1.78C12.55 1.8 12.54 1.82 12.52 1.84C12.51 1.86 12.5 1.88 12.48 1.9C12.47 1.92 12.46 1.94 12.44 1.96C12.43 1.98 12.42 2.01 12.4 2.03C12.39 2.05 12.37 2.07 12.36 2.09C12.35 2.12 12.33 2.14 12.32 2.16C12.31 2.19 12.29 2.21 12.28 2.24C12.27 2.26 12.25 2.29 12.24 2.31C12.22 2.34 12.21 2.37 12.2 2.39C12.18 2.42 12.17 2.45 12.16 2.48C12.14 2.51 12.13 2.54 12.11 2.57C12.1 2.6 12.09 2.63 12.07 2.66C12.06 2.7 12.04 2.73 12.03 2.77C12.02 2.8 12 2.84 11.99 2.88C11.98 2.92 11.96 2.96 11.95 3C11.93 3.04 11.92 3.09 11.91 3.13C11.89 3.18 11.88 3.23 11.87 3.29C11.85 3.35 11.84 3.41 11.83 3.47C11.77 3.75 11.74 4.05 11.74 4.35L11.74 10.01C11.77 9.99 11.8 9.96 11.83 9.94C11.84 9.93 11.85 9.91 11.87 9.9C11.88 9.89 11.89 9.88 11.91 9.87C11.92 9.86 11.94 9.85 11.95 9.84C11.96 9.83 11.98 9.82 11.99 9.81C12 9.8 12.02 9.79 12.03 9.78C12.04 9.77 12.06 9.76 12.07 9.75L12.11 9.72C12.13 9.71 12.14 9.7 12.16 9.69L12.2 9.67C12.21 9.66 12.22 9.65 12.24 9.64C12.25 9.63 12.27 9.62 12.28 9.61C12.29 9.6 12.31 9.6 12.32 9.59C12.33 9.58 12.35 9.57 12.36 9.56C12.37 9.56 12.39 9.55 12.4 9.54C12.42 9.53 12.43 9.52 12.44 9.52L12.48 9.49L12.52 9.47C12.54 9.46 12.55 9.46 12.57 9.45C12.58 9.44 12.59 9.43 12.61 9.43L12.65 9.41L12.69 9.38L12.73 9.36C12.74 9.36 12.76 9.35 12.77 9.34L12.81 9.32L12.85 9.3L12.89 9.29L12.94 9.27L12.98 9.25L13.02 9.23L13.06 9.22L13.1 9.2L13.14 9.18C13.15 9.18 13.17 9.17 13.18 9.17L13.22 9.15C13.24 9.15 13.25 9.14 13.26 9.14C13.28 9.13 13.29 9.13 13.31 9.12L13.35 9.11L13.39 9.09C13.4 9.09 13.41 9.08 13.43 9.08L13.47 9.06C13.48 9.06 13.5 9.05 13.51 9.05L13.55 9.04L13.59 9.02L13.63 9.01L13.68 9L13.72 8.99L13.76 8.97L13.8 8.96L13.84 8.95L13.88 8.94L13.93 8.93L13.97 8.92L14.01 8.91L14.05 8.9L14.1 8.89L14.14 8.88L14.18 8.87L14.22 8.86L14.26 8.85L14.3 8.84L14.34 8.83L14.38 8.82L14.42 8.82L14.47 8.81L14.51 8.8L14.55 8.79L14.59 8.78L14.63 8.78L14.67 8.77L14.71 8.76L14.75 8.76L14.8 8.75L14.84 8.74L14.88 8.74L14.92 8.73L14.96 8.72L15 8.72L15.04 8.71L15.08 8.71L15.12 8.7L15.16 8.7L15.2 8.69L15.25 8.69L15.29 8.68L15.33 8.68L15.37 8.67L15.41 8.67L15.45 8.67L15.49 8.66L15.53 8.66L15.57 8.65L15.61 8.65L15.66 8.65L15.7 8.64L15.74 8.64L15.78 8.64L15.82 8.64L15.86 8.63L15.9 8.63L15.94 8.63L15.98 8.63L16.03 8.63L16.07 8.62L16.11 8.62L16.15 8.62L16.19 8.62L16.23 8.62L16.27 8.62L16.31 8.61L16.35 8.61L16.4 8.61L16.44 8.61L16.48 8.61L16.52 8.61L16.56 8.61L16.6 8.61L16.64 8.61L16.68 8.61L16.72 8.61L16.77 8.61L16.81 8.61L16.85 8.61L16.89 8.61L16.93 8.61L16.97 8.61L17.01 8.61L17.05 8.61L17.09 8.61L17.13 8.61L17.17 8.61L17.22 8.61L17.26 8.61L17.3 8.61L17.34 8.61L17.38 8.61L17.42 8.61L17.46 8.61L17.5 8.62L17.55 8.62L17.59 8.62L17.63 8.62L17.67 8.62L17.71 8.62L17.73 8.62L17.75 8.62L17.79 8.63L17.83 8.63L17.88 8.63L17.92 8.63L17.96 8.63L18 8.64L18.04 8.64L18.08 8.64L18.12 8.64L18.16 8.65L18.2 8.65L18.24 8.65L18.28 8.66L18.33 8.66L18.37 8.67L18.41 8.67L18.45 8.67L18.49 8.68L18.53 8.68L18.57 8.69L18.61 8.69L18.66 8.69L18.7 8.7L18.74 8.7L18.78 8.71L18.82 8.71L18.86 8.72L18.9 8.72L18.94 8.73L18.98 8.73L19.02 8.74L19.07 8.75L19.11 8.75L19.15 8.76L19.19 8.76L19.23 8.77L19.27 8.78L19.31 8.78L19.35 8.79L19.4 8.79L19.44 8.8L19.48 8.81L19.52 8.81L19.56 8.82L19.6 8.83L19.64 8.83L19.68 8.84L19.72 8.85L19.77 8.85L19.81 8.86L19.85 8.87L19.89 8.88L19.93 8.88L19.97 8.89L20.01 8.9L20.05 8.91L20.09 8.91L20.13 8.92L20.17 8.93L20.22 8.94L20.26 8.95L20.3 8.96L20.34 8.96L20.38 8.97L20.42 8.98L20.46 8.99L20.5 9L20.54 9.01L20.59 9.01L20.63 9.02L20.67 9.03L20.71 9.04L20.75 9.05L20.79 9.06L20.83 9.07L20.87 9.08L20.92 9.09L20.96 9.1L21 9.11L21.04 9.12L21.08 9.13L21.08 10.96L21.04 10.94L21 10.92L20.96 10.9L20.92 10.88L20.87 10.86L20.83 10.83L20.79 10.82L20.75 10.8L20.71 10.78L20.67 10.76L20.63 10.74L20.59 10.72L20.54 10.7L20.5 10.68L20.46 10.66L20.42 10.64L20.38 10.63L20.34 10.61L20.3 10.59L20.26 10.57L20.22 10.56L20.17 10.54L20.13 10.52L20.09 10.51L20.05 10.49L20.01 10.48L19.97 10.46L19.93 10.45L19.89 10.43L19.85 10.42L19.81 10.4L19.77 10.39L19.72 10.37L19.68 10.36L19.64 10.35L19.6 10.33L19.56 10.32L19.52 10.31L19.48 10.3L19.44 10.28L19.4 10.27L19.35 10.26L19.31 10.25L19.27 10.24L19.23 10.23L19.19 10.22L19.15 10.21L19.11 10.19L19.07 10.18L19.02 10.17L18.98 10.17L18.94 10.16L18.9 10.15L18.86 10.14L18.82 10.13L18.78 10.12L18.74 10.11L18.7 10.11L18.66 10.1L18.61 10.09L18.57 10.09L18.53 10.08L18.49 10.07L18.45 10.06L18.41 10.06L18.37 10.05L18.33 10.05L18.28 10.04L18.24 10.04L18.2 10.03L18.16 10.03L18.12 10.02L18.08 10.02L18.02 10.03L17.98 10.02L17.94 10.02L17.9 10.02L17.86 10.01L17.83 10.01L17.82 10.01L17.77 10.01L17.73 10.01L17.69 10L17.65 10L17.61 10L17.57 10L17.53 10L17.49 10L17.45 10L17.4 10C17.39 10 17.38 10 17.36 10L17.32 10L17.28 10L17.24 10L17.2 10C17.18 10 17.17 10 17.16 10C17.14 10 17.13 10 17.12 10L17.07 10L17.03 10L16.99 10.01L16.95 10.01C16.94 10.01 16.93 10.01 16.91 10.01C16.9 10.01 16.88 10.02 16.87 10.02L16.83 10.02L16.79 10.03L16.75 10.03L16.71 10.04L16.67 10.04L16.62 10.05C16.61 10.05 16.6 10.05 16.58 10.06C16.57 10.06 16.56 10.06 16.54 10.06C16.53 10.07 16.51 10.07 16.5 10.07C16.49 10.08 16.47 10.08 16.46 10.08C16.44 10.08 16.43 10.09 16.42 10.09C16.4 10.09 16.39 10.09 16.38 10.1C16.36 10.1 16.35 10.1 16.34 10.11L16.3 10.12C16.28 10.12 16.27 10.12 16.25 10.13C16.24 10.13 16.23 10.13 16.21 10.14C16.2 10.14 16.19 10.15 16.17 10.15L16.13 10.16C16.12 10.16 16.1 10.17 16.09 10.17C16.08 10.18 16.06 10.18 16.05 10.19C16.03 10.19 16.02 10.2 16.01 10.2C15.99 10.2 15.98 10.21 15.97 10.21C15.95 10.22 15.94 10.22 15.93 10.23C15.91 10.23 15.9 10.24 15.89 10.25C15.87 10.25 15.86 10.26 15.84 10.26C15.83 10.27 15.82 10.27 15.8 10.28C15.79 10.28 15.78 10.29 15.76 10.3C15.75 10.3 15.73 10.31 15.72 10.31C15.71 10.32 15.69 10.33 15.68 10.33C15.67 10.34 15.65 10.35 15.64 10.35C15.62 10.36 15.61 10.37 15.6 10.37C15.58 10.38 15.57 10.39 15.56 10.4C15.54 10.4 15.53 10.41 15.51 10.42C15.5 10.42 15.49 10.43 15.47 10.44C15.46 10.45 15.45 10.46 15.43 10.46C15.42 10.47 15.41 10.48 15.39 10.49C15.38 10.5 15.37 10.51 15.35 10.52C15.34 10.53 15.32 10.53 15.31 10.54C15.3 10.55 15.28 10.56 15.27 10.57C15.26 10.58 15.24 10.59 15.23 10.6C15.21 10.61 15.2 10.62 15.19 10.63C15.17 10.64 15.16 10.65 15.15 10.66C15.13 10.68 15.12 10.69 15.1 10.7C15.09 10.71 15.08 10.72 15.06 10.73C15.05 10.74 15.04 10.76 15.02 10.77C15.01 10.78 15 10.79 14.98 10.81C14.97 10.82 14.95 10.83 14.94 10.85C14.93 10.86 14.91 10.87 14.9 10.89C14.89 10.9 14.87 10.92 14.86 10.93C14.85 10.95 14.83 10.96 14.82 10.98C14.8 10.99 14.79 11.01 14.78 11.03C14.76 11.04 14.75 11.06 14.74 11.08C14.72 11.1 14.71 11.11 14.7 11.13C14.68 11.15 14.67 11.17 14.65 11.19C14.64 11.21 14.63 11.23 14.61 11.25C14.6 11.27 14.58 11.29 14.57 11.31C14.56 11.34 14.54 11.36 14.53 11.38C14.52 11.41 14.5 11.43 14.49 11.46C14.47 11.49 14.46 11.51 14.45 11.54C14.43 11.57 14.42 11.6 14.41 11.63C14.39 11.67 14.38 11.7 14.36 11.73C14.35 11.77 14.34 11.8 14.32 11.84C14.31 11.88 14.3 11.93 14.28 11.97C14.27 12.02 14.25 12.07 14.24 12.12C14.23 12.19 14.21 12.25 14.2 12.32C14.18 12.42 14.17 12.52 14.16 12.63C14.15 12.75 14.14 12.87 14.14 13C14.14 13.13 14.15 13.25 14.16 13.37C14.17 13.48 14.18 13.58 14.2 13.68C14.21 13.75 14.23 13.81 14.24 13.88C14.25 13.93 14.27 13.98 14.28 14.03C14.3 14.07 14.31 14.11 14.32 14.16C14.34 14.19 14.35 14.23 14.36 14.27C14.38 14.3 14.39 14.33 14.41 14.37C14.42 14.39 14.43 14.43 14.45 14.46C14.46 14.48 14.47 14.51 14.49 14.54C14.5 14.56 14.52 14.59 14.53 14.61C14.54 14.63 14.56 14.66 14.57 14.68C14.58 14.7 14.6 14.73 14.61 14.75C14.63 14.77 14.64 14.78 14.65 14.81C14.67 14.83 14.68 14.84 14.7 14.87C14.71 14.88 14.72 14.9 14.74 14.92C14.75 14.94 14.76 14.95 14.78 14.97C14.79 14.99 14.8 15 14.82 15.02C14.83 15.04 14.85 15.05 14.86 15.06C14.87 15.08 14.89 15.09 14.9 15.11C14.91 15.12 14.93 15.14 14.94 15.15C14.95 15.17 14.97 15.18 14.98 15.19C15 15.2 15.01 15.22 15.02 15.23C15.04 15.24 15.05 15.25 15.06 15.27C15.08 15.28 15.09 15.29 15.1 15.3C15.12 15.31 15.13 15.32 15.15 15.33C15.16 15.34 15.17 15.35 15.19 15.36C15.2 15.37 15.21 15.39 15.23 15.39C15.24 15.41 15.26 15.42 15.27 15.42C15.28 15.43 15.3 15.44 15.31 15.45C15.32 15.46 15.34 15.47 15.35 15.48C15.37 15.48 15.38 15.49 15.39 15.5C15.41 15.51 15.42 15.52 15.43 15.53C15.45 15.53 15.46 15.54 15.47 15.55C15.49 15.56 15.5 15.56 15.51 15.57C15.53 15.58 15.54 15.59 15.56 15.59C15.57 15.6 15.58 15.61 15.6 15.61C15.61 15.62 15.62 15.63 15.64 15.63C15.65 15.64 15.67 15.65 15.68 15.65C15.69 15.66 15.71 15.67 15.72 15.67C15.73 15.68 15.75 15.69 15.76 15.69C15.78 15.7 15.79 15.71 15.8 15.71C15.82 15.72 15.83 15.72 15.84 15.73C15.86 15.73 15.87 15.74 15.89 15.75C15.9 15.75 15.91 15.76 15.93 15.76C15.94 15.77 15.95 15.77 15.97 15.78C15.98 15.78 15.99 15.79 16.01 15.8C16.02 15.8 16.03 15.8 16.05 15.81C16.06 15.81 16.08 15.82 16.09 15.82C16.1 15.83 16.12 15.83 16.13 15.84C16.14 15.84 16.16 15.84 16.17 15.85C16.19 15.85 16.2 15.86 16.21 15.86C16.23 15.86 16.24 15.87 16.25 15.87C16.27 15.87 16.28 15.88 16.3 15.88L16.34 15.89C16.35 15.9 16.36 15.9 16.38 15.9C16.39 15.91 16.4 15.91 16.42 15.91C16.43 15.91 16.44 15.92 16.46 15.92C16.47 15.92 16.49 15.93 16.5 15.93C16.51 15.93 16.53 15.93 16.54 15.94C16.56 15.94 16.57 15.94 16.58 15.94C16.6 15.95 16.61 15.95 16.62 15.95C16.64 15.95 16.65 15.95 16.67 15.96L16.71 15.96L16.75 15.97L16.79 15.97L16.83 15.98L16.87 15.98C16.88 15.99 16.9 15.99 16.91 15.99C16.93 15.99 16.94 15.99 16.95 15.99L16.99 15.99L17.03 16L17.07 16L17.12 16C17.13 16 17.14 16 17.16 16C17.17 16 17.18 16 17.2 16L17.24 16.01L17.28 16.01L17.32 16.01L17.36 16.01C17.38 16.01 17.39 16.01 17.4 16.01L17.45 16.01L17.49 16.01L17.53 16L17.57 16L17.61 16L17.65 16L17.69 16L17.73 16L17.77 15.99L17.82 15.99L17.83 15.99L17.86 15.99L17.9 15.99L17.94 15.98L17.98 15.98L18.02 15.97L18.06 15.97L18.1 15.96L18.14 15.96L18.18 15.95L18.22 15.95L18.26 15.94L18.31 15.94L18.35 15.93L18.39 15.92L18.43 15.91L18.47 15.91L18.51 15.9L18.55 15.89L18.59 15.89L18.64 15.88L18.68 15.87L18.72 15.86L18.76 15.86L18.8 15.84L18.84 15.84L18.88 15.83L18.92 15.82L18.96 15.81L19 15.8L19.05 15.79L19.09 15.78L19.13 15.77L19.17 15.76L19.21 15.74L19.25 15.73L19.29 15.72L19.33 15.71L19.38 15.7L19.42 15.68L19.46 15.67L19.5 15.66L19.54 15.65L19.58 15.63L19.62 15.62L19.66 15.6L19.7 15.59L19.75 15.57L19.79 15.56L19.83 15.55L19.87 15.53L19.91 15.52L19.95 15.5L19.99 15.48L20.03 15.47L20.07 15.45L20.11 15.43L20.15 15.42L20.2 15.4L20.24 15.38L20.28 15.37L20.32 15.35L20.36 15.33L20.4 15.31L20.44 15.29L20.48 15.27L20.52 15.25L20.57 15.23L20.61 15.21L20.65 15.19L20.69 15.17L20.73 15.15L20.77 15.13L20.81 15.11L20.85 15.09L20.9 15.07L20.94 15.05L20.98 15.03L21.02 15.01L21.06 14.99L21.06 16.82L21.02 16.83L20.98 16.84L20.94 16.85L20.9 16.86L20.85 16.87L20.81 16.88L20.77 16.89L20.73 16.9L20.69 16.91L20.65 16.92L20.59 16.95L20.55 16.96L20.51 16.97L20.47 16.98L20.43 16.99L20.39 17L20.35 17L20.31 17.01L20.27 17.02L20.22 17.03L20.18 17.04L20.14 17.05L20.1 17.05L20.06 17.06L20.02 17.07L19.98 17.08L19.94 17.09L19.9 17.09L19.86 17.1L19.82 17.11L19.77 17.12L19.73 17.12L19.69 17.13L19.65 17.14L19.61 17.15L19.57 17.15L19.53 17.16L19.49 17.16L19.45 17.17L19.4 17.18L19.36 17.18L19.32 17.19L19.28 17.2L19.24 17.21L19.2 17.21L19.16 17.22L19.12 17.24L19.07 17.24L19.03 17.25L18.99 17.25L18.95 17.26L18.91 17.26L18.87 17.27L18.83 17.28L18.79 17.28L18.75 17.29L18.7 17.29L18.66 17.3L18.62 17.3L18.58 17.31L18.54 17.31L18.5 17.31L18.46 17.32L18.42 17.32L18.38 17.33L18.33 17.33L18.29 17.34L18.25 17.34L18.21 17.34L18.17 17.34L18.13 17.35L18.09 17.35L18.05 17.35L18.01 17.35L17.97 17.36L17.93 17.36L17.89 17.36L17.84 17.36L17.8 17.37L17.76 17.37L17.72 17.37L17.7 17.37L17.68 17.37L17.64 17.37L17.6 17.37L17.56 17.37L17.51 17.38L17.47 17.38L17.43 17.38L17.39 17.38L17.35 17.38L17.31 17.38L17.27 17.38L17.23 17.39L17.18 17.39L17.14 17.39L17.1 17.39L17.06 17.39L17.02 17.39L16.98 17.39L16.94 17.39L16.9 17.39L16.86 17.39L16.82 17.39L16.77 17.39L16.75 17.39L16.71 17.39L16.67 17.39L16.63 17.39L16.59 17.39L16.55 17.39L16.51 17.39L16.46 17.39L16.42 17.38L16.38 17.38L16.34 17.38L16.3 17.38L16.26 17.38L16.22 17.38L16.18 17.37L16.14 17.37L16.09 17.37L16.05 17.37L16.01 17.37L15.97 17.37L15.93 17.37L15.89 17.37L15.85 17.37L15.81 17.36L15.77 17.36L15.73 17.36L15.69 17.36L15.65 17.35L15.6 17.35L15.56 17.35L15.52 17.34L15.48 17.34L15.44 17.34L15.4 17.33L15.36 17.33L15.32 17.32L15.28 17.32L15.24 17.31L15.19 17.31L15.15 17.3L15.11 17.3L15.07 17.29L15.03 17.28L14.99 17.28L14.95 17.27L14.91 17.27L14.87 17.26L14.83 17.26L14.79 17.25L14.74 17.24L14.7 17.24L14.66 17.23L14.62 17.22L14.58 17.21L14.54 17.21L14.5 17.2L14.46 17.19L14.41 17.18L14.37 17.17L14.33 17.17L14.29 17.16L14.25 17.15L14.21 17.14L14.17 17.13L14.13 17.12L14.09 17.11L14.04 17.1L14 17.09L13.96 17.08L13.92 17.07L13.88 17.06L13.84 17.05L13.8 17.04L13.76 17.02L13.72 17.01L13.67 17L13.63 16.99L13.59 16.97L13.55 16.96L13.51 16.95C13.5 16.94 13.48 16.94 13.47 16.94C13.45 16.93 13.44 16.93 13.43 16.92L13.4 16.9L13.36 16.89C13.34 16.88 13.33 16.88 13.32 16.87C13.3 16.87 13.29 16.86 13.28 16.85L13.23 16.84C13.22 16.83 13.21 16.83 13.19 16.82L13.15 16.8L13.11 16.79L13.07 16.77L13.03 16.75L12.99 16.73L12.95 16.71L12.91 16.69L12.86 16.67L12.82 16.65L12.78 16.63C12.77 16.63 12.76 16.62 12.74 16.61L12.7 16.59L12.66 16.57L12.62 16.55C12.6 16.54 12.59 16.53 12.58 16.53C12.56 16.52 12.55 16.51 12.54 16.51L12.49 16.49L12.45 16.46L12.41 16.45C12.4 16.44 12.39 16.43 12.37 16.42C12.36 16.41 12.34 16.4 12.33 16.4L12.29 16.38C12.28 16.37 12.26 16.36 12.25 16.35C12.24 16.34 12.22 16.33 12.21 16.33L12.17 16.3C12.15 16.29 12.14 16.28 12.12 16.27L12.08 16.24C12.07 16.23 12.06 16.22 12.04 16.22C12.03 16.2 12.01 16.19 12 16.19C11.99 16.18 11.97 16.17 11.96 16.16C11.95 16.15 11.93 16.13 11.92 16.12C11.91 16.11 11.89 16.1 11.88 16.09C11.86 16.08 11.85 16.07 11.84 16.06C11.81 16.04 11.78 16.01 11.75 15.99L11.75 25.97L11.84 25.97L11.88 25.97L11.92 25.97L11.96 25.97L12 25.97L12.04 25.97L12.08 25.97L12.12 25.97L12.17 25.97L12.21 25.97L12.25 25.97L12.29 25.97L12.33 25.97L12.37 25.97L12.41 25.97L12.45 25.97L12.49 25.97L12.54 25.97L12.58 25.97L12.62 25.97L12.66 25.97L12.7 25.97L12.74 25.97L12.78 25.97L12.82 25.97L12.86 25.97L12.91 25.97L12.95 25.97L12.99 25.97L13.03 25.97L13.07 25.97L13.11 25.97L13.15 25.97L13.19 25.97L13.23 25.97L13.28 25.97L13.32 25.97L13.36 25.97L13.4 25.97L13.44 25.97L13.48 25.97L13.52 25.97L13.56 25.97L13.6 25.97L13.65 25.97L13.69 25.97L13.73 25.97L13.77 25.97L13.81 25.97L13.85 25.97L13.89 25.97L13.93 25.97L13.97 25.97L14.02 25.97L14.06 25.97L14.1 25.97L14.14 25.97L14.18 25.97L14.22 25.97L14.26 25.97L14.3 25.97L14.34 25.97L14.38 25.97L14.43 25.97L14.47 25.97L14.51 25.97L14.55 25.97L14.59 25.97L14.63 25.97L14.67 25.97L14.72 25.97L14.76 25.97L14.8 25.97L14.84 25.97L14.88 25.97L14.92 25.97L14.96 25.97L15 25.97L15.04 25.97L15.08 25.97L15.12 25.97L15.17 25.97L15.21 25.97L15.25 25.97L15.29 25.97L15.33 25.97L15.37 25.97L15.41 25.97L15.45 25.97L15.49 25.97L15.53 25.97L15.58 25.97L15.62 25.97L15.66 25.97L15.7 25.97L15.74 25.97L15.78 25.97L15.82 25.97L15.86 25.97L15.9 25.97L15.95 25.97L15.99 25.97L16.03 25.97L16.07 25.97L16.11 25.97L16.15 25.97L16.19 25.97L16.23 25.97L16.27 25.97L16.32 25.97L16.36 25.97L16.4 25.97L16.44 25.97L16.48 25.97L16.52 25.97L16.56 25.97L16.6 25.97L16.64 25.97L16.69 25.97L16.73 25.97L16.77 25.97L16.81 25.97L16.85 25.97L16.89 25.97L16.93 25.97L16.97 25.97L17.01 25.97L17.05 25.97L17.09 25.97L17.14 25.97L17.18 25.97L17.22 25.97L17.26 25.97L17.3 25.97L17.34 25.97L17.38 25.97L17.42 25.97L17.47 25.97L17.51 25.97L17.55 25.97L17.59 25.97L17.63 25.97L17.67 25.97L17.71 25.97L17.75 25.97L17.8 25.97L17.84 25.97L17.88 25.97L17.92 25.97L17.96 25.97L18 25.97L18 25.97C18.02 25.97 18.03 25.97 18.04 25.97L18.08 25.97C18.1 25.97 18.11 25.97 18.12 25.97C18.14 25.97 18.15 25.97 18.16 25.97C18.18 25.97 18.19 25.97 18.2 25.97L18.25 25.97L18.29 25.97C18.3 25.96 18.31 25.96 18.33 25.96C18.34 25.96 18.35 25.96 18.37 25.96L18.41 25.96C18.42 25.95 18.44 25.95 18.45 25.95C18.47 25.95 18.48 25.95 18.49 25.95C18.51 25.94 18.52 25.94 18.53 25.94C18.55 25.94 18.56 25.94 18.57 25.94L18.62 25.93C18.63 25.93 18.64 25.93 18.66 25.92C18.67 25.92 18.68 25.92 18.7 25.92C18.71 25.92 18.72 25.91 18.74 25.91L18.78 25.9L18.82 25.89C18.84 25.89 18.85 25.89 18.86 25.88C18.88 25.88 18.89 25.88 18.9 25.87L18.95 25.86L18.99 25.85C19 25.85 19.01 25.85 19.03 25.84C19.04 25.84 19.05 25.84 19.07 25.83C19.08 25.83 19.09 25.83 19.11 25.82C19.12 25.82 19.14 25.81 19.15 25.81L19.19 25.8L19.23 25.79C19.25 25.78 19.26 25.78 19.27 25.77C19.29 25.77 19.3 25.76 19.32 25.76C19.33 25.75 19.34 25.75 19.36 25.74L19.4 25.73L19.44 25.71C19.45 25.71 19.47 25.7 19.48 25.7C19.49 25.69 19.51 25.69 19.52 25.68C19.54 25.68 19.55 25.67 19.56 25.66C19.57 25.66 19.59 25.65 19.6 25.65L19.64 25.63L19.69 25.61L19.73 25.59C19.74 25.58 19.75 25.58 19.77 25.57C19.78 25.56 19.79 25.56 19.81 25.55C19.82 25.54 19.84 25.54 19.85 25.53C19.86 25.52 19.88 25.51 19.89 25.51C19.9 25.5 19.92 25.49 19.93 25.49C19.95 25.48 19.96 25.47 19.97 25.46L20.01 25.44L20.05 25.42L20.09 25.4C20.11 25.39 20.12 25.38 20.14 25.38C20.15 25.37 20.16 25.36 20.18 25.35C20.19 25.34 20.21 25.34 20.22 25.33C20.23 25.32 20.24 25.31 20.26 25.31C20.27 25.3 20.29 25.29 20.3 25.28C20.32 25.27 20.33 25.26 20.34 25.25C20.36 25.24 20.37 25.23 20.38 25.23C20.4 25.22 20.41 25.21 20.42 25.2C20.44 25.19 20.45 25.18 20.47 25.17C20.48 25.16 20.49 25.15 20.51 25.14C20.52 25.13 20.53 25.12 20.55 25.11C20.56 25.1 20.57 25.09 20.59 25.08C20.6 25.07 20.61 25.06 20.63 25.05C20.64 25.04 20.66 25.03 20.67 25.02C20.69 25.01 20.7 24.99 20.71 24.98C20.73 24.97 20.74 24.96 20.75 24.95C20.77 24.93 20.78 24.93 20.79 24.91C20.81 24.9 20.82 24.89 20.84 24.88C20.85 24.86 20.86 24.85 20.88 24.84C20.89 24.83 20.9 24.81 20.92 24.8C20.93 24.79 20.94 24.78 20.96 24.76C20.97 24.75 20.99 24.74 21 24.72C21.02 24.71 21.03 24.69 21.04 24.68C21.06 24.66 21.07 24.65 21.08 24.64C21.1 24.62 21.11 24.61 21.12 24.59C21.14 24.58 21.15 24.56 21.16 24.55C21.18 24.53 21.19 24.52 21.21 24.5C21.22 24.48 21.23 24.47 21.25 24.45C21.26 24.43 21.27 24.42 21.29 24.4C21.3 24.38 21.31 24.37 21.33 24.35C21.34 24.33 21.36 24.32 21.37 24.3C21.38 24.28 21.4 24.26 21.41 24.24C21.42 24.22 21.44 24.2 21.45 24.19C21.47 24.16 21.48 24.15 21.49 24.13C21.51 24.11 21.52 24.09 21.54 24.07C21.55 24.04 21.56 24.02 21.58 24C21.59 23.98 21.6 23.96 21.62 23.94C21.63 23.92 21.64 23.9 21.66 23.87C21.67 23.85 21.68 23.83 21.7 23.8C21.71 23.78 21.73 23.75 21.74 23.73C21.75 23.7 21.77 23.68 21.78 23.65C21.79 23.63 21.81 23.6 21.82 23.57C21.84 23.54 21.85 23.51 21.86 23.48C21.88 23.46 21.89 23.42 21.9 23.39C21.92 23.36 21.93 23.33 21.94 23.3C21.96 23.26 21.97 23.23 21.99 23.19C22 23.15 22.01 23.12 22.03 23.08C22.04 23.04 22.06 22.99 22.07 22.95C22.08 22.91 22.1 22.86 22.11 22.81C22.12 22.76 22.14 22.71 22.15 22.65C22.17 22.59 22.18 22.52 22.19 22.46C22.21 22.37 22.22 22.29 22.23 22.2C22.25 22.02 22.27 21.83 22.27 21.65L22.27 0.02L22.19 0.02ZM10.47 0.02L10.41 0.02L10.37 0.02L10.33 0.02L10.28 0.02L10.24 0.02L10.2 0.02L10.16 0.02L10.12 0.02L10.08 0.02L10.04 0.02L10 0.02L9.96 0.02L9.92 0.02L9.88 0.02L9.84 0.02L9.79 0.02L9.75 0.02L9.71 0.02L9.67 0.02L9.63 0.02L9.59 0.02L9.55 0.02L9.51 0.02L9.47 0.02L9.43 0.02L9.38 0.02L9.34 0.02L9.3 0.02L9.26 0.02L9.22 0.02L9.18 0.02L9.14 0.02L9.1 0.02L9.06 0.02L9.02 0.02L8.98 0.02L8.94 0.02L8.89 0.02L8.85 0.02L8.81 0.02L8.77 0.02L8.73 0.02L8.69 0.02L8.65 0.02L8.61 0.02L8.56 0.02L8.52 0.02L8.48 0.02L8.44 0.02L8.4 0.02L8.36 0.02L8.32 0.02L8.28 0.02L8.24 0.02L8.2 0.02L8.16 0.02L8.12 0.02L8.07 0.02L8.03 0.02L7.99 0.02L7.95 0.02L7.91 0.02L7.87 0.02L7.83 0.02L7.79 0.02L7.74 0.02L7.7 0.02L7.66 0.02L7.62 0.02L7.58 0.02L7.54 0.02L7.5 0.02L7.46 0.02L7.42 0.02L7.37 0.02L7.34 0.02L7.3 0.02L7.26 0.02L7.22 0.02L7.18 0.02L7.13 0.02L7.09 0.02L7.05 0.02L7.01 0.02L6.97 0.02L6.93 0.02L6.89 0.02L6.85 0.02L6.81 0.02L6.77 0.02L6.72 0.02L6.68 0.02L6.64 0.02L6.6 0.02L6.56 0.02L6.52 0.02L6.48 0.02L6.44 0.02L6.4 0.02L6.36 0.02L6.32 0.02L6.27 0.02L6.23 0.02L6.19 0.02L6.15 0.02L6.11 0.02L6.07 0.02L6.03 0.02L5.99 0.02L5.95 0.02L5.91 0.02L5.87 0.02L5.83 0.02L5.78 0.02L5.74 0.02L5.7 0.02L5.66 0.02L5.62 0.02L5.58 0.02L5.54 0.02L5.5 0.02L5.46 0.02L5.42 0.02L5.37 0.02L5.33 0.02L5.29 0.02L5.25 0.02L5.21 0.02L5.17 0.02L5.13 0.02L5.09 0.02L5.05 0.02L5.01 0.02L4.97 0.02L4.93 0.02L4.88 0.02L4.84 0.02L4.8 0.02L4.76 0.02L4.72 0.02L4.68 0.02L4.64 0.02L4.6 0.02L4.56 0.02L4.52 0.02L4.48 0.02L4.44 0.02L4.4 0.02L4.35 0.02L4.31 0.02L4.27 0.02L4.25 0.02L4.23 0.02C4.22 0.02 4.2 0.02 4.19 0.02C4.18 0.02 4.16 0.02 4.15 0.02C4.13 0.02 4.12 0.02 4.11 0.02L4.07 0.02C4.05 0.02 4.04 0.02 4.03 0.03C4.01 0.03 4 0.03 3.99 0.03C3.97 0.03 3.96 0.03 3.94 0.03C3.93 0.03 3.92 0.03 3.9 0.03L3.86 0.04C3.85 0.04 3.83 0.04 3.82 0.04C3.81 0.04 3.79 0.04 3.78 0.04L3.74 0.05L3.7 0.05C3.68 0.06 3.67 0.06 3.66 0.06C3.64 0.06 3.63 0.06 3.61 0.07C3.6 0.07 3.59 0.07 3.57 0.07L3.53 0.08C3.52 0.08 3.51 0.08 3.49 0.09C3.48 0.09 3.46 0.09 3.45 0.1C3.44 0.1 3.42 0.1 3.41 0.1C3.4 0.11 3.38 0.11 3.37 0.11L3.33 0.12C3.31 0.12 3.3 0.13 3.28 0.13C3.27 0.13 3.26 0.14 3.24 0.14C3.23 0.14 3.22 0.15 3.2 0.15C3.19 0.15 3.17 0.16 3.16 0.16L3.12 0.17C3.11 0.18 3.09 0.18 3.08 0.18C3.06 0.19 3.05 0.19 3.04 0.2C3.03 0.2 3.01 0.2 3 0.21C2.98 0.21 2.97 0.22 2.96 0.22L2.92 0.24L2.87 0.25C2.86 0.26 2.85 0.26 2.83 0.27C2.82 0.27 2.81 0.28 2.79 0.28C2.78 0.29 2.76 0.29 2.75 0.3L2.72 0.31L2.68 0.33L2.64 0.35C2.62 0.35 2.61 0.36 2.59 0.36C2.58 0.37 2.57 0.38 2.55 0.38C2.54 0.39 2.53 0.39 2.51 0.4C2.5 0.41 2.49 0.41 2.47 0.42C2.46 0.43 2.44 0.43 2.43 0.44C2.42 0.45 2.4 0.45 2.39 0.46L2.35 0.48C2.33 0.49 2.32 0.5 2.31 0.5C2.29 0.51 2.28 0.52 2.27 0.53C2.25 0.53 2.24 0.54 2.22 0.55C2.21 0.56 2.2 0.56 2.18 0.57C2.17 0.58 2.16 0.59 2.14 0.59C2.13 0.6 2.12 0.61 2.1 0.62C2.09 0.63 2.07 0.64 2.06 0.64C2.05 0.65 2.03 0.66 2.02 0.67C2 0.68 1.99 0.69 1.98 0.69C1.97 0.7 1.95 0.71 1.94 0.72C1.92 0.73 1.91 0.74 1.9 0.75C1.88 0.76 1.87 0.77 1.86 0.78C1.84 0.79 1.83 0.79 1.81 0.81C1.8 0.82 1.79 0.82 1.77 0.83L1.73 0.87C1.72 0.88 1.7 0.89 1.69 0.9C1.68 0.91 1.66 0.92 1.65 0.93C1.63 0.94 1.62 0.95 1.61 0.96C1.59 0.97 1.58 0.98 1.57 1C1.55 1.01 1.54 1.02 1.53 1.03C1.51 1.04 1.5 1.05 1.49 1.07C1.47 1.08 1.46 1.09 1.44 1.1C1.43 1.11 1.42 1.13 1.4 1.14C1.39 1.15 1.38 1.17 1.36 1.18C1.35 1.19 1.33 1.2 1.32 1.22C1.31 1.23 1.29 1.24 1.28 1.26C1.26 1.27 1.25 1.28 1.24 1.3C1.22 1.32 1.21 1.33 1.2 1.34C1.18 1.36 1.17 1.37 1.16 1.39C1.14 1.4 1.13 1.42 1.11 1.43C1.1 1.45 1.09 1.46 1.07 1.48C1.06 1.49 1.05 1.51 1.03 1.53C1.02 1.54 1 1.56 0.99 1.57C0.98 1.59 0.96 1.61 0.95 1.62C0.94 1.64 0.92 1.66 0.91 1.68C0.89 1.69 0.88 1.71 0.87 1.73C0.85 1.75 0.84 1.77 0.83 1.79C0.81 1.81 0.8 1.82 0.78 1.84C0.77 1.86 0.76 1.88 0.74 1.9C0.73 1.92 0.72 1.95 0.7 1.97C0.69 1.99 0.67 2.01 0.66 2.03C0.65 2.05 0.63 2.07 0.62 2.1C0.61 2.12 0.59 2.14 0.58 2.17C0.56 2.19 0.55 2.21 0.54 2.24C0.52 2.27 0.51 2.29 0.5 2.32C0.48 2.34 0.47 2.37 0.46 2.39C0.44 2.42 0.43 2.45 0.41 2.48C0.4 2.51 0.39 2.54 0.37 2.57C0.36 2.6 0.35 2.63 0.33 2.66C0.32 2.7 0.3 2.73 0.29 2.77C0.28 2.8 0.26 2.84 0.25 2.88C0.24 2.92 0.22 2.96 0.21 3C0.19 3.04 0.18 3.09 0.17 3.13C0.15 3.19 0.14 3.24 0.13 3.29C0.11 3.35 0.1 3.41 0.09 3.47C0.03 3.75 0 4.05 0 4.35L0 15.03C0.03 15.05 0.06 15.06 0.09 15.08L0.13 15.1L0.17 15.12L0.21 15.14L0.25 15.16L0.29 15.18L0.33 15.2L0.37 15.22L0.41 15.24L0.46 15.25L0.5 15.28L0.54 15.29L0.58 15.31L0.62 15.33L0.66 15.35L0.7 15.37L0.74 15.39L0.78 15.4L0.83 15.42L0.87 15.44L0.91 15.46L0.95 15.47L0.99 15.49L1.03 15.5L1.07 15.52L1.11 15.54L1.16 15.55L1.2 15.57L1.24 15.58L1.28 15.6L1.32 15.61L1.36 15.63L1.4 15.64L1.44 15.66L1.49 15.67L1.53 15.69L1.57 15.7L1.61 15.71L1.65 15.72L1.69 15.74L1.73 15.75L1.77 15.76L1.81 15.77L1.86 15.78L1.9 15.79L1.94 15.81L1.98 15.82L2.02 15.83L2.06 15.84L2.1 15.85L2.14 15.86L2.18 15.87L2.22 15.88L2.27 15.89L2.31 15.9L2.35 15.9L2.39 15.91L2.43 15.92L2.47 15.93L2.51 15.94L2.55 15.95L2.59 15.95L2.64 15.96L2.68 15.97L2.72 15.98L2.76 15.98L2.8 15.99L2.84 15.99L2.88 16L2.92 16L2.97 16.01L3.01 16.01L3.05 16.02L3.09 16.02L3.13 16.03L3.17 16.03L3.21 16.03L3.25 16.03L3.29 16.04L3.34 16.04L3.38 16.04L3.42 16.04L3.46 16.05L3.5 16.05L3.54 16.05L3.58 16.05L3.62 16.05L3.66 16.05L3.69 16.05L3.71 16.05C3.72 16.05 3.73 16.05 3.75 16.05L3.79 16.05C3.8 16.05 3.82 16.05 3.83 16.05C3.84 16.05 3.86 16.05 3.87 16.05C3.88 16.04 3.9 16.04 3.91 16.04C3.93 16.04 3.94 16.04 3.95 16.04C3.97 16.04 3.98 16.04 3.99 16.04C4.01 16.03 4.02 16.03 4.04 16.03L4.08 16.03C4.09 16.03 4.1 16.02 4.12 16.02C4.13 16.02 4.14 16.02 4.16 16.02L4.2 16.01C4.21 16.01 4.23 16.01 4.24 16C4.25 16 4.27 16 4.28 15.99C4.29 15.99 4.31 15.99 4.32 15.99C4.34 15.98 4.35 15.98 4.36 15.98C4.38 15.97 4.39 15.97 4.4 15.97C4.42 15.96 4.43 15.96 4.45 15.96C4.46 15.95 4.47 15.95 4.49 15.95C4.5 15.94 4.51 15.94 4.53 15.93C4.54 15.93 4.55 15.92 4.57 15.92C4.58 15.91 4.6 15.91 4.61 15.9C4.62 15.9 4.64 15.89 4.65 15.89C4.66 15.88 4.68 15.88 4.69 15.87C4.71 15.87 4.72 15.86 4.73 15.86C4.75 15.85 4.76 15.85 4.77 15.84C4.79 15.83 4.8 15.83 4.82 15.82C4.83 15.81 4.84 15.81 4.86 15.8C4.87 15.79 4.88 15.79 4.9 15.78C4.91 15.77 4.93 15.76 4.94 15.76C4.95 15.75 4.97 15.74 4.98 15.73C4.99 15.73 5.01 15.72 5.02 15.71C5.03 15.7 5.05 15.7 5.06 15.69C5.08 15.68 5.09 15.67 5.1 15.66C5.12 15.65 5.13 15.64 5.14 15.64C5.16 15.63 5.17 15.62 5.18 15.61C5.2 15.6 5.21 15.59 5.23 15.58C5.24 15.56 5.25 15.55 5.27 15.54C5.28 15.53 5.29 15.52 5.31 15.51C5.32 15.5 5.34 15.48 5.35 15.47C5.36 15.46 5.38 15.45 5.39 15.43C5.4 15.42 5.42 15.41 5.43 15.39C5.45 15.37 5.46 15.36 5.47 15.35C5.49 15.33 5.5 15.31 5.51 15.3C5.53 15.28 5.54 15.26 5.56 15.24C5.57 15.22 5.58 15.21 5.6 15.19C5.61 15.17 5.62 15.15 5.64 15.13C5.65 15.1 5.67 15.08 5.68 15.06C5.69 15.04 5.71 15.01 5.72 14.99C5.73 14.96 5.75 14.93 5.76 14.91C5.77 14.88 5.79 14.85 5.8 14.82C5.82 14.76 5.83 14.73 5.84 14.69C5.86 14.65 5.87 14.61 5.88 14.56C5.9 14.51 5.91 14.46 5.92 14.4C5.94 14.31 5.96 14.21 5.97 14.12C5.97 14.04 5.98 13.96 5.98 13.88L5.98 8.86L6.01 8.86L6.05 8.86L6.09 8.86L6.11 8.86L6.15 8.86L6.19 8.86L6.24 8.86L6.28 8.86L6.32 8.86L6.36 8.86L6.4 8.86L6.44 8.86L6.48 8.86L6.52 8.86L6.56 8.86L6.61 8.86L6.65 8.86L6.69 8.86L6.73 8.86L6.77 8.86L6.81 8.86L6.85 8.86L6.89 8.86L6.93 8.86L6.97 8.86L7.02 8.86L7.06 8.86L7.1 8.86L7.14 8.86L7.18 8.86L7.22 8.86L7.26 8.86L7.3 8.86L7.34 8.86L7.39 8.86L7.43 8.86L7.47 8.86L7.51 8.86L7.55 8.86L7.59 8.86L7.63 8.86L7.67 8.86L7.72 8.86L7.76 8.86L7.8 8.86L7.84 8.86L7.88 8.86L7.92 8.86L7.96 8.86L8 8.86L8.05 8.86L8.09 8.86L8.13 8.86L8.17 8.86L8.21 8.86L8.25 8.86L8.29 8.86L8.33 8.86L8.37 8.86L8.42 8.86L8.46 8.86L8.5 8.86L8.54 8.86L8.58 8.86L8.62 8.86L8.66 8.86L8.7 8.86L8.74 8.86L8.78 8.86L8.83 8.86L8.87 8.86L8.91 8.86L8.95 8.86L8.99 8.86L9.03 8.86L9.07 8.86L9.11 8.86L9.16 8.86L9.2 8.86L9.24 8.86L9.28 8.86L9.32 8.86L9.36 8.86L9.4 8.86L9.44 8.86L9.48 8.86L9.53 8.86L9.57 8.86L9.61 8.86L9.63 8.86L9.63 13.88C9.63 14.03 9.62 14.17 9.61 14.32C9.6 14.42 9.58 14.52 9.57 14.61C9.55 14.68 9.54 14.75 9.53 14.81C9.51 14.86 9.5 14.91 9.48 14.96C9.47 15.01 9.46 15.05 9.44 15.09C9.43 15.13 9.42 15.17 9.4 15.2C9.39 15.24 9.38 15.27 9.36 15.3C9.35 15.33 9.33 15.37 9.32 15.4C9.31 15.42 9.29 15.45 9.28 15.48C9.26 15.5 9.25 15.53 9.24 15.55C9.22 15.58 9.21 15.6 9.2 15.62C9.18 15.65 9.17 15.67 9.16 15.69C9.14 15.71 9.13 15.73 9.11 15.75C9.1 15.77 9.09 15.8 9.07 15.82C9.06 15.84 9.05 15.85 9.03 15.87C9.02 15.89 9.01 15.91 8.99 15.93C8.98 15.94 8.96 15.96 8.95 15.97C8.94 15.99 8.92 16.01 8.91 16.02C8.9 16.04 8.88 16.06 8.87 16.07C8.85 16.09 8.84 16.1 8.83 16.11C8.81 16.13 8.8 16.14 8.79 16.16C8.77 16.17 8.76 16.18 8.74 16.2C8.73 16.21 8.72 16.22 8.7 16.24C8.69 16.25 8.68 16.26 8.66 16.28C8.65 16.29 8.64 16.3 8.62 16.31C8.61 16.32 8.6 16.33 8.58 16.34C8.57 16.36 8.55 16.37 8.54 16.38C8.53 16.39 8.51 16.4 8.5 16.41C8.49 16.42 8.47 16.43 8.46 16.44C8.44 16.45 8.43 16.46 8.42 16.47C8.4 16.48 8.39 16.49 8.37 16.5C8.36 16.51 8.35 16.52 8.33 16.52C8.32 16.53 8.31 16.54 8.29 16.55C8.28 16.56 8.27 16.57 8.25 16.58C8.24 16.58 8.22 16.59 8.21 16.6C8.2 16.61 8.18 16.62 8.17 16.62C8.16 16.63 8.14 16.64 8.13 16.65C8.12 16.66 8.1 16.66 8.09 16.67C8.07 16.68 8.06 16.69 8.05 16.69C8.03 16.7 8.02 16.71 8.01 16.71C7.99 16.72 7.98 16.73 7.96 16.73C7.95 16.74 7.94 16.75 7.92 16.76C7.91 16.76 7.9 16.77 7.88 16.77C7.87 16.78 7.85 16.79 7.84 16.8L7.8 16.82L7.76 16.84C7.74 16.84 7.73 16.85 7.72 16.86C7.7 16.86 7.69 16.87 7.67 16.88L7.63 16.89L7.59 16.91C7.58 16.92 7.57 16.92 7.55 16.93C7.54 16.94 7.52 16.94 7.51 16.95C7.5 16.95 7.48 16.96 7.47 16.96L7.43 16.98C7.41 16.98 7.4 16.99 7.39 16.99C7.37 17 7.36 17.01 7.34 17.01L7.3 17.02L7.26 17.04C7.25 17.04 7.23 17.05 7.22 17.05L7.18 17.06L7.14 17.07C7.13 17.08 7.11 17.08 7.1 17.09L7.06 17.1C7.04 17.11 7.03 17.11 7.02 17.11C7 17.12 6.99 17.12 6.97 17.13L6.93 17.14C6.92 17.14 6.91 17.15 6.89 17.15C6.88 17.15 6.87 17.16 6.85 17.16L6.81 17.17C6.8 17.17 6.78 17.18 6.77 17.18C6.76 17.18 6.74 17.19 6.73 17.19L6.69 17.2C6.67 17.2 6.66 17.21 6.65 17.21L6.61 17.22L6.56 17.23C6.55 17.23 6.54 17.23 6.52 17.24L6.48 17.24L6.44 17.25L6.4 17.26C6.39 17.26 6.37 17.26 6.36 17.27C6.35 17.27 6.33 17.27 6.32 17.28L6.28 17.28C6.26 17.29 6.25 17.29 6.24 17.29L6.19 17.3L6.15 17.3L6.11 17.28C6.1 17.28 6.09 17.29 6.07 17.29L6.03 17.3L5.99 17.3L5.95 17.3L5.91 17.31L5.87 17.31L5.82 17.32L5.78 17.32L5.74 17.33L5.7 17.33L5.66 17.34L5.62 17.34L5.58 17.35L5.54 17.35L5.5 17.35L5.46 17.36L5.41 17.36L5.37 17.36L5.33 17.36L5.29 17.37L5.25 17.37L5.21 17.37L5.17 17.38L5.13 17.38L5.09 17.38L5.05 17.38L5.01 17.38L4.97 17.38L4.93 17.39L4.88 17.39L4.84 17.39L4.8 17.39L4.76 17.39L4.72 17.39L4.68 17.39L4.64 17.39L4.6 17.39L4.56 17.39L4.51 17.39L4.47 17.39L4.44 17.39L4.39 17.39L4.37 17.39L4.35 17.39L4.31 17.39L4.27 17.39L4.23 17.39L4.19 17.39L4.15 17.39L4.11 17.39L4.07 17.39L4.03 17.39L3.98 17.39L3.94 17.39L3.9 17.39L3.86 17.39L3.82 17.39L3.78 17.39L3.74 17.39L3.7 17.39L3.65 17.39L3.61 17.38L3.57 17.38L3.53 17.38L3.49 17.38L3.45 17.37L3.41 17.37L3.37 17.37L3.33 17.37L3.29 17.36L3.25 17.36L3.21 17.36L3.17 17.36L3.12 17.35L3.08 17.35L3.04 17.35L3 17.35L2.96 17.34L2.92 17.34L2.88 17.34L2.84 17.33L2.8 17.33L2.75 17.33L2.72 17.32L2.68 17.31L2.64 17.31L2.59 17.31L2.55 17.3L2.51 17.3L2.47 17.29L2.43 17.29L2.39 17.28L2.35 17.28L2.31 17.28L2.27 17.27L2.22 17.27L2.18 17.26L2.14 17.26L2.1 17.25L2.06 17.25L2.02 17.24L1.98 17.24L1.94 17.23L1.9 17.22L1.86 17.22L1.81 17.21L1.77 17.21L1.73 17.2L1.69 17.2L1.65 17.19L1.61 17.18L1.57 17.18L1.53 17.17L1.49 17.16L1.44 17.16L1.4 17.15L1.36 17.14L1.32 17.14L1.28 17.13L1.24 17.12L1.2 17.12L1.16 17.11L1.11 17.1L1.07 17.09L1.03 17.09L0.99 17.08L0.95 17.07L0.91 17.06L0.87 17.06L0.83 17.05L0.78 17.04L0.74 17.03L0.7 17.02L0.66 17.01L0.62 17L0.58 16.99L0.54 16.99L0.5 16.98L0.46 16.97L0.41 16.96L0.37 16.95L0.33 16.94L0.29 16.93L0.25 16.92L0.21 16.91L0.17 16.9L0.13 16.89L0.09 16.88C0.03 16.86 0 16.86 0 16.86L0 25.97L0.09 25.97L0.13 25.97L0.17 25.97L0.22 25.97L0.27 25.97L0.31 25.97L0.35 25.97L0.39 25.97L0.43 25.97L0.47 25.97L0.51 25.97L0.55 25.97L0.59 25.97L0.63 25.97L0.68 25.97L0.72 25.97L0.76 25.97L0.8 25.97L0.84 25.97L0.88 25.97L0.92 25.97L0.96 25.97L1.01 25.97L1.05 25.97L1.09 25.97L1.13 25.97L1.17 25.97L1.21 25.97L1.25 25.97L1.29 25.97L1.33 25.97L1.38 25.97L1.42 25.97L1.46 25.97L1.5 25.97L1.54 25.97L1.58 25.97L1.62 25.97L1.66 25.97L1.71 25.97L1.75 25.97L1.79 25.97L1.83 25.97L1.87 25.97L1.91 25.97L1.95 25.97L1.99 25.97L2.03 25.97L2.07 25.97L2.12 25.97L2.16 25.97L2.2 25.97L2.24 25.97L2.28 25.97L2.32 25.97L2.36 25.97L2.4 25.97L2.45 25.97L2.49 25.97L2.53 25.97L2.57 25.97L2.61 25.97L2.65 25.97L2.69 25.97L2.72 25.97L2.76 25.97L2.8 25.97L2.84 25.97L2.88 25.97L2.92 25.97L2.97 25.97L3.01 25.97L3.05 25.97L3.09 25.97L3.13 25.97L3.17 25.97L3.21 25.97L3.25 25.97L3.29 25.97L3.34 25.97L3.38 25.97L3.42 25.97L3.46 25.97L3.5 25.97L3.54 25.97L3.58 25.97L3.62 25.97L3.66 25.97L3.71 25.97L3.75 25.97L3.79 25.97L3.83 25.97L3.87 25.97L3.91 25.97L3.95 25.97L3.99 25.97L4.04 25.97L4.08 25.97L4.12 25.97L4.16 25.97L4.2 25.97L4.24 25.97L4.28 25.97L4.32 25.97L4.36 25.97L4.4 25.97L4.45 25.97L4.49 25.97L4.53 25.97L4.57 25.97L4.61 25.97L4.65 25.97L4.69 25.97L4.73 25.97L4.77 25.97L4.82 25.97L4.86 25.97L4.9 25.97L4.94 25.97L4.98 25.97L5.02 25.97L5.06 25.97L5.1 25.97L5.14 25.97L5.18 25.97L5.23 25.97L5.27 25.97L5.31 25.97L5.35 25.97L5.39 25.97L5.43 25.97L5.47 25.97L5.51 25.97L5.56 25.97L5.6 25.97L5.64 25.97L5.68 25.97L5.72 25.97L5.76 25.97L5.8 25.97L5.84 25.97L5.88 25.97L5.92 25.97L5.97 25.97L6.01 25.97L6.05 25.97L6.09 25.97L6.11 25.97L6.15 25.97L6.19 25.97L6.24 25.97L6.24 25.97C6.25 25.97 6.26 25.97 6.28 25.97L6.32 25.97C6.33 25.97 6.35 25.97 6.36 25.97C6.37 25.97 6.39 25.97 6.4 25.97C6.41 25.97 6.43 25.97 6.44 25.97L6.48 25.97L6.52 25.97C6.54 25.96 6.55 25.96 6.56 25.96C6.58 25.96 6.59 25.96 6.61 25.96L6.65 25.96C6.66 25.95 6.67 25.95 6.69 25.95C6.7 25.95 6.71 25.95 6.73 25.94C6.74 25.94 6.75 25.94 6.77 25.94C6.78 25.94 6.8 25.94 6.81 25.93L6.85 25.93C6.86 25.93 6.88 25.93 6.89 25.92C6.91 25.92 6.92 25.92 6.93 25.92C6.95 25.91 6.96 25.91 6.97 25.91L7.02 25.9C7.03 25.9 7.04 25.89 7.06 25.89C7.07 25.89 7.08 25.89 7.1 25.88C7.11 25.88 7.13 25.88 7.14 25.87L7.18 25.86L7.22 25.85C7.24 25.85 7.25 25.85 7.26 25.84C7.28 25.84 7.29 25.84 7.3 25.83C7.32 25.83 7.33 25.82 7.34 25.82C7.36 25.82 7.37 25.81 7.39 25.81L7.43 25.8L7.47 25.78C7.48 25.78 7.5 25.78 7.51 25.77C7.52 25.77 7.54 25.76 7.55 25.76C7.57 25.75 7.58 25.75 7.59 25.74L7.63 25.73L7.67 25.71C7.69 25.71 7.7 25.7 7.72 25.7C7.73 25.69 7.74 25.68 7.76 25.68C7.77 25.67 7.78 25.67 7.8 25.66C7.81 25.66 7.83 25.65 7.84 25.65C7.85 25.64 7.87 25.63 7.88 25.63L7.92 25.61L7.96 25.59C7.98 25.58 7.99 25.58 8 25.57C8.02 25.56 8.03 25.56 8.05 25.55C8.06 25.54 8.07 25.53 8.09 25.53C8.1 25.52 8.11 25.51 8.13 25.51C8.14 25.5 8.16 25.49 8.17 25.49C8.18 25.48 8.2 25.47 8.21 25.46L8.25 25.44C8.26 25.43 8.28 25.43 8.29 25.42C8.31 25.41 8.32 25.4 8.33 25.4C8.35 25.39 8.36 25.38 8.37 25.38C8.39 25.37 8.4 25.36 8.42 25.35C8.43 25.34 8.44 25.33 8.46 25.33C8.47 25.32 8.48 25.31 8.5 25.3C8.51 25.29 8.52 25.28 8.54 25.28C8.55 25.27 8.57 25.26 8.58 25.25C8.59 25.24 8.61 25.23 8.62 25.22C8.63 25.21 8.65 25.2 8.66 25.2C8.68 25.19 8.69 25.18 8.7 25.17C8.72 25.16 8.73 25.15 8.74 25.14C8.76 25.13 8.77 25.12 8.78 25.11C8.8 25.1 8.81 25.09 8.83 25.08C8.84 25.07 8.85 25.06 8.87 25.05C8.88 25.04 8.89 25.02 8.91 25.01C8.92 25 8.94 24.99 8.95 24.98C8.96 24.97 8.98 24.96 8.99 24.95C9 24.93 9.02 24.92 9.03 24.91C9.05 24.9 9.06 24.89 9.07 24.87C9.09 24.86 9.1 24.85 9.11 24.84C9.13 24.82 9.14 24.81 9.15 24.8C9.17 24.78 9.18 24.77 9.2 24.76C9.21 24.74 9.22 24.73 9.24 24.72C9.25 24.7 9.26 24.69 9.28 24.67C9.29 24.66 9.3 24.65 9.32 24.63C9.33 24.62 9.35 24.6 9.36 24.59C9.37 24.57 9.39 24.56 9.4 24.54C9.42 24.53 9.43 24.51 9.44 24.5C9.46 24.48 9.47 24.46 9.48 24.45C9.5 24.43 9.51 24.41 9.52 24.4C9.54 24.38 9.55 24.36 9.57 24.34C9.58 24.33 9.59 24.31 9.61 24.29C9.62 24.27 9.63 24.26 9.65 24.24C9.66 24.22 9.67 24.2 9.69 24.18C9.7 24.16 9.71 24.14 9.73 24.12C9.74 24.1 9.76 24.08 9.77 24.06C9.78 24.04 9.8 24.02 9.81 24C9.82 23.97 9.84 23.95 9.85 23.93C9.87 23.91 9.88 23.89 9.89 23.87C9.91 23.84 9.92 23.82 9.93 23.8C9.95 23.77 9.96 23.75 9.98 23.72C9.99 23.7 10 23.67 10.02 23.65C10.03 23.62 10.04 23.59 10.06 23.56C10.07 23.54 10.08 23.51 10.1 23.48C10.11 23.45 10.13 23.42 10.14 23.39C10.15 23.36 10.17 23.32 10.18 23.29C10.2 23.26 10.21 23.22 10.22 23.19C10.24 23.15 10.25 23.11 10.26 23.07C10.28 23.03 10.29 22.99 10.3 22.95C10.32 22.9 10.33 22.85 10.34 22.81C10.36 22.75 10.37 22.7 10.39 22.65C10.4 22.59 10.41 22.52 10.43 22.45C10.44 22.37 10.46 22.28 10.47 22.19C10.49 22.01 10.5 21.83 10.5 21.64L10.5 0.02L10.47 0.02ZM33.98 0.01L33.91 0.01L33.91 0.02L33.87 0.02L33.83 0.02L33.79 0.02L33.75 0.02L33.71 0.02L33.67 0.02L33.63 0.02L33.58 0.02L33.54 0.02L33.5 0.02L33.46 0.02L33.42 0.02L33.38 0.02L33.34 0.02L33.3 0.02L33.26 0.02L33.22 0.02L33.18 0.02L33.13 0.02L33.09 0.02L33.05 0.02L33.01 0.02L32.97 0.02L32.93 0.02L32.89 0.02L32.85 0.02L32.81 0.02L32.77 0.02L32.72 0.02L32.68 0.02L32.64 0.02L32.6 0.02L32.56 0.02L32.52 0.02L32.48 0.02L32.44 0.02L32.4 0.02L32.35 0.02L32.31 0.02L32.27 0.02L32.23 0.02L32.19 0.02L32.15 0.02L32.11 0.02L32.07 0.02L32.03 0.02L31.99 0.02L31.95 0.02L31.9 0.02L31.86 0.02L31.82 0.02L31.78 0.02L31.74 0.02L31.7 0.02L31.66 0.02L31.62 0.02L31.58 0.02L31.53 0.02L31.49 0.02L31.45 0.02L31.41 0.02L31.37 0.02L31.33 0.02L31.29 0.02L31.25 0.02L31.21 0.02L31.17 0.02L31.13 0.02L31.09 0.02L31.05 0.02L31 0.02L30.96 0.02L30.92 0.02L30.88 0.02L30.84 0.02L30.8 0.02L30.76 0.02L30.72 0.02L30.68 0.02L30.63 0.02L30.59 0.02L30.55 0.02L30.51 0.02L30.47 0.02L30.43 0.02L30.39 0.02L30.34 0.02L30.3 0.02L30.27 0.02L30.22 0.02L30.18 0.02L30.14 0.02L30.1 0.02L30.06 0.02L30.02 0.02L29.98 0.02L29.94 0.02L29.9 0.02L29.86 0.02L29.82 0.02L29.78 0.02L29.73 0.02L29.69 0.02L29.65 0.02L29.61 0.02L29.57 0.02L29.53 0.02L29.49 0.02L29.45 0.02L29.41 0.02L29.37 0.02L29.32 0.02L29.28 0.02L29.24 0.02L29.2 0.02L29.16 0.02L29.12 0.02L29.08 0.02L29.04 0.02L29 0.02L28.96 0.02L28.91 0.02L28.87 0.02L28.83 0.02L28.79 0.02L28.75 0.02L28.71 0.02L28.67 0.02L28.63 0.02L28.59 0.02L28.54 0.02L28.5 0.02L28.46 0.02L28.42 0.02L28.38 0.02L28.34 0.02L28.3 0.02L28.26 0.02L28.22 0.02L28.18 0.02L28.14 0.02L28.1 0.02L28.05 0.02L28.01 0.02L27.97 0.02L27.93 0.02L27.89 0.02L27.85 0.02L27.81 0.02L27.77 0.02L27.74 0.02L27.73 0.02C27.71 0.02 27.7 0.02 27.68 0.02C27.67 0.02 27.66 0.02 27.64 0.02C27.63 0.02 27.62 0.02 27.6 0.02L27.56 0.02C27.55 0.02 27.54 0.02 27.52 0.02C27.5 0.02 27.49 0.02 27.48 0.02C27.47 0.03 27.45 0.03 27.44 0.03L27.4 0.03L27.35 0.04C27.34 0.04 27.33 0.04 27.31 0.04C27.3 0.04 27.29 0.04 27.27 0.04L27.23 0.05C27.22 0.05 27.2 0.05 27.19 0.05C27.18 0.05 27.16 0.06 27.15 0.06C27.13 0.06 27.12 0.06 27.11 0.06C27.09 0.06 27.08 0.07 27.06 0.07L27.02 0.08C27.01 0.08 27 0.08 26.98 0.08C26.97 0.09 26.96 0.09 26.94 0.09C26.93 0.09 26.92 0.1 26.9 0.1L26.86 0.11L26.82 0.12C26.8 0.12 26.79 0.12 26.78 0.13C26.76 0.13 26.75 0.13 26.74 0.14C26.72 0.14 26.71 0.14 26.7 0.15L26.66 0.16C26.64 0.16 26.63 0.16 26.61 0.17C26.6 0.17 26.59 0.18 26.57 0.18C26.56 0.19 26.55 0.19 26.53 0.19C26.52 0.2 26.5 0.2 26.49 0.21C26.48 0.21 26.46 0.21 26.45 0.22L26.41 0.23C26.39 0.24 26.38 0.24 26.37 0.25C26.35 0.25 26.34 0.26 26.32 0.26C26.31 0.27 26.3 0.27 26.28 0.28C26.27 0.28 26.26 0.29 26.24 0.29L26.2 0.31L26.16 0.32C26.15 0.33 26.13 0.33 26.12 0.34C26.1 0.35 26.09 0.35 26.08 0.36C26.06 0.36 26.05 0.37 26.04 0.38C26.02 0.38 26.01 0.39 26 0.39C25.98 0.4 25.97 0.41 25.95 0.41C25.94 0.42 25.93 0.43 25.91 0.43L25.87 0.45C25.86 0.46 25.85 0.47 25.83 0.48C25.82 0.48 25.81 0.49 25.79 0.5C25.78 0.5 25.76 0.51 25.75 0.52C25.73 0.53 25.72 0.53 25.71 0.54C25.69 0.55 25.68 0.56 25.67 0.56C25.65 0.57 25.64 0.58 25.63 0.59C25.61 0.59 25.6 0.6 25.58 0.61C25.57 0.62 25.56 0.63 25.54 0.64C25.53 0.64 25.52 0.65 25.5 0.66L25.46 0.69C25.45 0.7 25.43 0.71 25.42 0.72L25.38 0.74L25.34 0.77C25.32 0.78 25.31 0.79 25.29 0.8L25.25 0.83C25.24 0.84 25.23 0.85 25.21 0.86C25.2 0.87 25.19 0.88 25.17 0.89L25.13 0.92L25.09 0.96C25.08 0.96 25.06 0.98 25.05 0.99C25.04 1 25.02 1.01 25.01 1.02C25 1.04 24.98 1.05 24.97 1.06C24.95 1.07 24.94 1.08 24.92 1.1C24.91 1.11 24.9 1.12 24.88 1.13C24.87 1.15 24.86 1.16 24.84 1.17C24.83 1.18 24.82 1.2 24.8 1.21C24.79 1.22 24.77 1.24 24.76 1.25C24.75 1.26 24.73 1.28 24.72 1.29C24.7 1.31 24.69 1.32 24.68 1.33C24.66 1.35 24.65 1.36 24.64 1.38C24.62 1.39 24.61 1.41 24.6 1.42C24.58 1.44 24.57 1.45 24.56 1.47C24.54 1.48 24.53 1.5 24.51 1.52C24.5 1.53 24.49 1.55 24.47 1.57C24.46 1.58 24.45 1.6 24.43 1.62C24.42 1.63 24.4 1.65 24.39 1.67C24.38 1.69 24.36 1.7 24.35 1.72C24.34 1.74 24.32 1.76 24.31 1.78C24.29 1.8 24.28 1.82 24.27 1.84C24.25 1.85 24.24 1.87 24.23 1.9C24.21 1.92 24.2 1.94 24.19 1.96C24.17 1.98 24.16 2 24.14 2.02C24.13 2.04 24.12 2.07 24.1 2.09C24.09 2.11 24.08 2.13 24.06 2.16C24.05 2.18 24.04 2.21 24.02 2.23C24.01 2.26 23.99 2.28 23.98 2.31C23.96 2.33 23.95 2.36 23.94 2.39C23.92 2.42 23.91 2.44 23.9 2.47C23.88 2.5 23.87 2.53 23.85 2.56C23.84 2.59 23.83 2.62 23.81 2.66C23.8 2.69 23.79 2.72 23.77 2.76C23.76 2.8 23.74 2.83 23.73 2.87C23.72 2.91 23.7 2.95 23.69 2.99C23.67 3.04 23.66 3.08 23.65 3.13C23.63 3.18 23.62 3.23 23.61 3.28C23.59 3.34 23.58 3.4 23.57 3.46C23.51 3.75 23.48 4.04 23.48 4.34L23.48 8.83L23.57 8.83L23.61 8.83L23.65 8.83L23.69 8.83L23.73 8.83L23.77 8.83L23.81 8.83L23.85 8.83L23.9 8.83L23.94 8.83L23.98 8.83L24.02 8.83L24.06 8.83L24.1 8.83L24.14 8.83L24.18 8.83L24.22 8.83L24.27 8.83L24.31 8.83L24.35 8.83L24.39 8.83L24.43 8.83L24.47 8.83L24.51 8.83L24.55 8.83L24.6 8.83L24.64 8.83L24.68 8.83L24.72 8.83L24.76 8.83L24.8 8.83L24.84 8.83L24.88 8.83L24.92 8.83L24.97 8.83L25.01 8.83L25.05 8.83L25.09 8.83L25.13 8.83L25.17 8.83L25.21 8.83L25.25 8.83L25.29 8.83L25.33 8.83L25.37 8.83L25.42 8.83L25.46 8.83L25.5 8.83L25.54 8.83L25.58 8.83L25.62 8.83L25.66 8.83L25.7 8.83L25.74 8.83L25.79 8.83L25.83 8.83L25.87 8.83L25.91 8.83L25.95 8.83L25.99 8.83L26.03 8.83L26.07 8.83L26.12 8.83L26.16 8.83L26.2 8.83L26.24 8.83L26.28 8.83L26.32 8.83L26.37 8.83L26.41 8.83L26.45 8.83L26.5 8.83L26.54 8.83L26.58 8.83L26.62 8.83L26.66 8.83L26.7 8.83L26.74 8.83L26.78 8.83L26.82 8.83L26.87 8.83L26.91 8.83L26.95 8.83L26.99 8.83L27.03 8.83L27.07 8.83L27.11 8.83L27.15 8.83L27.2 8.83L27.24 8.83L27.28 8.83L27.32 8.83L27.36 8.83L27.4 8.83L27.45 8.83L27.49 8.83L27.53 8.83L27.57 8.83L27.61 8.83L27.65 8.83L27.69 8.83L27.73 8.83L27.77 8.83L27.82 8.83L27.86 8.83L27.9 8.83L27.94 8.83L27.98 8.83L28.02 8.83L28.06 8.83L28.1 8.83L28.14 8.83L28.18 8.83L28.23 8.83L28.27 8.83L28.31 8.83L28.35 8.83L28.39 8.83L28.43 8.83L28.47 8.83L28.51 8.83L28.55 8.83L28.59 8.83L28.63 8.83L28.68 8.83L28.72 8.83L28.76 8.83L28.8 8.83L28.84 8.83L28.88 8.83L28.92 8.83L28.97 8.83L29.01 8.83L29.05 8.83L29.09 8.83L29.13 8.83L29.17 8.83L29.21 8.83L29.25 8.83L29.29 8.83L29.33 8.83L29.38 8.83L29.42 8.83L29.46 8.83L29.5 8.83L29.52 8.83L29.54 8.83L29.58 8.83L29.62 8.84L29.66 8.84L29.71 8.84L29.75 8.84L29.79 8.84L29.83 8.84L29.87 8.85L29.91 8.85L29.94 8.85L29.95 8.85L29.99 8.85L30.03 8.86L30.08 8.86L30.12 8.86L30.16 8.87L30.2 8.87L30.24 8.88L30.28 8.88L30.32 8.89L30.36 8.89C30.38 8.89 30.39 8.9 30.4 8.9L30.45 8.91C30.46 8.91 30.47 8.91 30.49 8.91C30.5 8.92 30.51 8.92 30.53 8.92L30.57 8.93C30.58 8.93 30.6 8.94 30.61 8.94C30.63 8.94 30.64 8.95 30.65 8.95L30.69 8.96C30.71 8.96 30.72 8.97 30.73 8.97C30.75 8.98 30.76 8.98 30.78 8.98C30.79 8.99 30.8 8.99 30.82 9C30.83 9 30.84 9 30.86 9.01C30.87 9.01 30.88 9.02 30.9 9.02C30.91 9.03 30.92 9.03 30.94 9.04C30.95 9.04 30.97 9.05 30.98 9.05C31 9.06 31.01 9.06 31.02 9.07C31.04 9.07 31.05 9.08 31.06 9.09C31.08 9.09 31.09 9.1 31.1 9.1C31.12 9.11 31.13 9.11 31.15 9.12C31.16 9.13 31.17 9.13 31.19 9.14C31.2 9.15 31.21 9.15 31.23 9.16C31.24 9.17 31.26 9.17 31.27 9.18C31.28 9.19 31.3 9.2 31.31 9.2C31.32 9.21 31.34 9.22 31.35 9.23C31.37 9.23 31.38 9.24 31.39 9.25C31.41 9.26 31.42 9.27 31.43 9.28C31.45 9.28 31.46 9.29 31.47 9.3C31.49 9.31 31.5 9.32 31.52 9.33C31.53 9.34 31.54 9.35 31.56 9.36C31.57 9.37 31.58 9.38 31.6 9.39C31.61 9.4 31.63 9.41 31.64 9.42C31.65 9.43 31.67 9.45 31.68 9.46C31.7 9.47 31.71 9.48 31.72 9.49C31.74 9.51 31.75 9.52 31.76 9.53C31.78 9.55 31.79 9.56 31.8 9.57C31.82 9.59 31.83 9.6 31.84 9.62C31.86 9.63 31.87 9.65 31.89 9.66C31.9 9.68 31.91 9.7 31.93 9.71C31.94 9.73 31.95 9.75 31.97 9.77C31.98 9.79 32 9.81 32.01 9.83C32.02 9.85 32.04 9.87 32.05 9.89C32.07 9.91 32.08 9.94 32.09 9.96C32.11 9.99 32.12 10.02 32.13 10.04C32.15 10.07 32.16 10.11 32.17 10.14C32.19 10.18 32.2 10.21 32.22 10.25C32.23 10.3 32.25 10.35 32.26 10.4C32.28 10.48 32.29 10.57 32.3 10.65C32.3 10.72 32.31 10.79 32.31 10.86C32.31 10.93 32.3 11 32.3 11.06C32.29 11.15 32.28 11.23 32.26 11.31C32.25 11.36 32.23 11.41 32.22 11.46C32.2 11.5 32.19 11.54 32.17 11.57C32.16 11.6 32.15 11.64 32.13 11.67C32.12 11.7 32.11 11.72 32.09 11.75C32.08 11.78 32.07 11.8 32.05 11.83C32.04 11.85 32.02 11.87 32.01 11.89C32 11.91 31.98 11.93 31.97 11.95C31.95 11.97 31.94 11.99 31.93 12.01C31.91 12.03 31.9 12.04 31.89 12.06C31.87 12.08 31.86 12.09 31.84 12.11C31.83 12.12 31.82 12.14 31.8 12.15C31.79 12.17 31.78 12.18 31.76 12.2C31.75 12.21 31.74 12.22 31.72 12.24C31.71 12.25 31.7 12.26 31.68 12.28C31.67 12.29 31.65 12.3 31.64 12.31C31.63 12.32 31.61 12.33 31.6 12.35C31.58 12.36 31.57 12.37 31.56 12.38C31.54 12.39 31.53 12.4 31.52 12.41C31.5 12.42 31.49 12.43 31.47 12.44C31.46 12.44 31.45 12.46 31.43 12.46C31.42 12.47 31.41 12.48 31.39 12.49C31.38 12.5 31.37 12.51 31.35 12.51C31.34 12.52 31.32 12.53 31.31 12.54C31.3 12.54 31.28 12.55 31.27 12.56C31.26 12.57 31.24 12.57 31.23 12.58C31.21 12.59 31.2 12.59 31.19 12.6C31.17 12.61 31.16 12.62 31.15 12.62C31.13 12.63 31.12 12.63 31.1 12.64C31.09 12.65 31.08 12.65 31.06 12.66C31.05 12.66 31.04 12.67 31.02 12.68C31.01 12.68 31 12.69 30.98 12.69C30.97 12.7 30.96 12.7 30.94 12.71C30.93 12.71 30.91 12.72 30.9 12.72C30.88 12.73 30.87 12.73 30.86 12.74C30.84 12.74 30.83 12.75 30.82 12.75C30.8 12.76 30.79 12.76 30.78 12.76C30.76 12.77 30.75 12.77 30.73 12.78C30.72 12.78 30.71 12.78 30.69 12.79C30.68 12.79 30.67 12.8 30.65 12.8C30.64 12.8 30.63 12.81 30.61 12.81L30.57 12.82C30.56 12.82 30.54 12.82 30.53 12.83L30.49 12.84C30.47 12.84 30.46 12.84 30.45 12.84L30.4 12.85L30.37 12.86L30.37 12.91L30.41 12.91L30.45 12.91L30.49 12.92L30.53 12.92L30.57 12.93L30.61 12.93L30.65 12.94C30.67 12.94 30.68 12.94 30.69 12.94L30.74 12.95C30.75 12.95 30.76 12.95 30.78 12.96L30.82 12.96L30.86 12.97C30.87 12.98 30.88 12.98 30.9 12.98C30.91 12.98 30.93 12.99 30.94 12.99C30.95 12.99 30.97 13 30.98 13C31 13 31.01 13.01 31.02 13.01C31.04 13.01 31.05 13.02 31.06 13.02C31.08 13.02 31.09 13.03 31.11 13.03C31.12 13.04 31.13 13.04 31.15 13.05L31.19 13.06C31.2 13.06 31.21 13.07 31.23 13.07C31.24 13.07 31.26 13.08 31.27 13.08C31.29 13.09 31.3 13.09 31.31 13.1C31.33 13.1 31.34 13.11 31.35 13.11C31.37 13.12 31.38 13.12 31.39 13.13C31.41 13.13 31.42 13.14 31.43 13.15C31.45 13.15 31.46 13.16 31.48 13.16C31.49 13.17 31.5 13.18 31.52 13.18C31.53 13.19 31.54 13.19 31.56 13.2C31.57 13.21 31.58 13.21 31.6 13.22C31.61 13.23 31.63 13.23 31.64 13.24C31.66 13.25 31.67 13.25 31.68 13.26C31.7 13.27 31.71 13.28 31.72 13.28C31.74 13.29 31.75 13.3 31.76 13.31C31.78 13.31 31.79 13.32 31.81 13.33C31.82 13.34 31.83 13.35 31.85 13.35C31.86 13.36 31.87 13.37 31.89 13.38C31.9 13.39 31.91 13.4 31.93 13.4C31.94 13.41 31.96 13.42 31.97 13.43C31.98 13.44 32 13.45 32.01 13.46C32.03 13.47 32.04 13.48 32.05 13.49C32.07 13.5 32.08 13.51 32.09 13.52C32.11 13.53 32.12 13.54 32.13 13.56C32.15 13.57 32.16 13.58 32.18 13.59C32.19 13.6 32.2 13.62 32.22 13.63C32.23 13.64 32.24 13.66 32.26 13.67C32.27 13.68 32.29 13.7 32.3 13.71C32.31 13.73 32.33 13.74 32.34 13.76C32.36 13.77 32.37 13.79 32.38 13.8C32.4 13.82 32.41 13.84 32.42 13.85C32.44 13.87 32.45 13.89 32.46 13.91C32.48 13.93 32.49 13.95 32.5 13.97C32.52 13.99 32.53 14.01 32.55 14.03C32.56 14.05 32.57 14.08 32.59 14.1C32.6 14.13 32.61 14.16 32.63 14.18C32.64 14.21 32.66 14.24 32.67 14.27C32.69 14.31 32.7 14.34 32.71 14.38C32.73 14.42 32.74 14.47 32.75 14.52C32.77 14.59 32.78 14.66 32.79 14.73C32.81 14.82 32.81 14.91 32.81 15C32.81 15.1 32.81 15.19 32.79 15.28C32.78 15.35 32.77 15.43 32.75 15.5C32.74 15.54 32.73 15.59 32.71 15.64C32.7 15.68 32.69 15.71 32.67 15.75C32.66 15.78 32.65 15.81 32.63 15.85C32.62 15.87 32.6 15.9 32.59 15.93C32.57 15.95 32.56 15.98 32.55 16C32.53 16.02 32.52 16.05 32.5 16.07C32.49 16.09 32.48 16.11 32.46 16.13C32.45 16.15 32.44 16.17 32.42 16.19C32.41 16.2 32.4 16.22 32.38 16.24C32.37 16.26 32.36 16.27 32.34 16.29C32.33 16.31 32.31 16.32 32.3 16.33C32.29 16.35 32.27 16.36 32.26 16.38C32.24 16.39 32.23 16.4 32.22 16.42C32.2 16.43 32.19 16.44 32.18 16.46C32.16 16.47 32.15 16.48 32.13 16.49C32.12 16.51 32.11 16.52 32.09 16.53C32.08 16.54 32.07 16.55 32.05 16.56C32.04 16.57 32.03 16.58 32.01 16.59C32 16.6 31.98 16.61 31.97 16.62C31.96 16.63 31.94 16.64 31.93 16.65C31.92 16.66 31.9 16.67 31.89 16.68C31.87 16.69 31.86 16.7 31.85 16.7C31.83 16.71 31.82 16.72 31.81 16.73C31.79 16.74 31.78 16.74 31.76 16.75C31.75 16.76 31.74 16.77 31.72 16.77C31.71 16.78 31.7 16.79 31.68 16.79C31.67 16.8 31.66 16.81 31.64 16.82C31.63 16.82 31.61 16.83 31.6 16.84C31.58 16.84 31.57 16.85 31.56 16.86C31.54 16.86 31.53 16.87 31.52 16.88C31.5 16.88 31.49 16.89 31.48 16.9C31.46 16.9 31.45 16.91 31.43 16.91C31.42 16.92 31.41 16.93 31.39 16.93C31.38 16.94 31.37 16.94 31.35 16.95C31.34 16.95 31.33 16.96 31.31 16.96C31.3 16.97 31.29 16.97 31.27 16.98C31.26 16.98 31.24 16.99 31.23 16.99L31.19 17C31.17 17 31.16 17.01 31.15 17.01C31.13 17.02 31.12 17.02 31.11 17.02C31.09 17.03 31.08 17.03 31.06 17.04C31.05 17.04 31.04 17.04 31.02 17.05C31.01 17.05 31 17.05 30.98 17.06C30.97 17.06 30.96 17.07 30.94 17.07L30.9 17.08C30.88 17.08 30.87 17.09 30.86 17.09C30.84 17.09 30.83 17.09 30.82 17.1L30.78 17.1L30.74 17.11C30.72 17.11 30.71 17.11 30.69 17.12C30.68 17.12 30.67 17.12 30.65 17.12C30.64 17.12 30.63 17.13 30.61 17.13L30.57 17.13C30.56 17.14 30.54 17.14 30.53 17.14C30.51 17.14 30.5 17.14 30.49 17.14L30.45 17.14L30.41 17.14L30.36 17.15L30.32 17.15L30.27 17.15C30.25 17.16 30.24 17.16 30.22 17.16C30.21 17.16 30.2 17.16 30.18 17.16L30.14 17.16L30.1 17.16L30.08 17.16L30.06 17.16L30.02 17.16L29.98 17.16L29.94 17.16L29.9 17.16L29.86 17.16L29.82 17.16L29.78 17.16L29.73 17.16L29.69 17.16L29.65 17.16L29.61 17.16L29.57 17.16L29.53 17.16L29.49 17.16L29.45 17.16L29.41 17.16L29.37 17.16L29.32 17.16L29.28 17.16L29.24 17.16L29.2 17.16L29.16 17.16L29.12 17.16L29.08 17.16L29.04 17.16L29 17.16L28.96 17.16L28.91 17.16L28.87 17.16L28.83 17.16L28.79 17.16L28.75 17.16L28.71 17.16L28.67 17.16L28.63 17.16L28.59 17.16L28.54 17.16L28.5 17.16L28.46 17.16L28.42 17.16L28.38 17.16L28.34 17.16L28.3 17.16L28.26 17.16L28.22 17.16L28.18 17.16L28.14 17.16L28.1 17.16L28.05 17.16L28.01 17.16L27.97 17.16L27.93 17.16L27.89 17.16L27.85 17.16L27.81 17.16L27.77 17.16L27.73 17.16L27.68 17.16L27.64 17.16L27.6 17.16L27.56 17.16L27.52 17.16L27.48 17.16L27.44 17.16L27.4 17.16L27.35 17.16L27.31 17.16L27.27 17.16L27.23 17.16L27.19 17.16L27.15 17.16L27.11 17.16L27.07 17.16L27.03 17.16L26.99 17.16L26.95 17.16L26.91 17.16L26.87 17.16L26.82 17.16L26.78 17.16L26.74 17.16L26.7 17.16L26.66 17.16L26.62 17.16L26.58 17.16L26.54 17.16L26.5 17.16L26.45 17.16L26.41 17.16L26.37 17.16L26.33 17.16L26.29 17.16L26.25 17.16L26.21 17.16L26.17 17.16L26.13 17.16L26.09 17.16L26.05 17.16L26 17.16L25.96 17.16L25.92 17.16L25.88 17.16L25.84 17.16L25.8 17.16L25.76 17.16L25.72 17.16L25.68 17.16L25.64 17.16L25.6 17.16L25.55 17.16L25.51 17.16L25.47 17.16L25.43 17.16L25.39 17.16L25.35 17.16L25.3 17.16L25.26 17.16L25.22 17.16L25.18 17.16L25.14 17.16L25.1 17.16L25.06 17.16L25.02 17.16L24.98 17.16L24.94 17.16L24.9 17.16L24.86 17.16L24.82 17.16L24.77 17.16L24.73 17.16L24.69 17.16L24.65 17.16L24.61 17.16L24.57 17.16L24.53 17.16L24.49 17.16L24.45 17.16L24.41 17.16L24.37 17.16L24.33 17.16L24.28 17.16L24.24 17.16L24.2 17.16L24.16 17.16L24.12 17.16L24.08 17.16L24.04 17.16L24 17.16L23.96 17.16L23.91 17.16L23.87 17.16L23.83 17.16L23.79 17.16L23.75 17.16L23.71 17.16L23.67 17.16L23.63 17.16L23.59 17.16L23.5 17.16L23.5 25.98L23.59 25.98L23.63 25.98L23.67 25.98L23.71 25.98L23.75 25.98L23.79 25.98L23.83 25.98L23.88 25.98L23.92 25.98L23.96 25.98L24 25.98L24.04 25.98L24.08 25.98L24.12 25.98L24.16 25.98L24.2 25.98L24.25 25.98L24.29 25.98L24.33 25.98L24.37 25.98L24.41 25.98L24.45 25.98L24.49 25.98L24.53 25.98L24.58 25.98L24.62 25.98L24.66 25.98L24.7 25.98L24.74 25.98L24.78 25.98L24.82 25.98L24.86 25.98L24.9 25.98L24.95 25.98L24.99 25.98L25.03 25.98L25.07 25.98L25.11 25.98L25.15 25.98L25.19 25.98L25.23 25.98L25.27 25.98L25.31 25.98L25.36 25.98L25.4 25.98L25.44 25.98L25.48 25.98L25.52 25.98L25.56 25.98L25.6 25.98L25.64 25.98L25.68 25.98L25.73 25.98L25.77 25.98L25.81 25.98L25.85 25.98L25.89 25.98L25.93 25.98L25.97 25.98L26.01 25.98L26.06 25.98L26.1 25.98L26.14 25.98L26.18 25.98L26.22 25.98L26.26 25.98L26.3 25.98L26.34 25.98L26.37 25.98L26.41 25.98L26.45 25.98L26.5 25.98L26.54 25.98L26.58 25.98L26.62 25.98L26.66 25.98L26.7 25.98L26.74 25.98L26.78 25.98L26.82 25.98L26.87 25.98L26.91 25.98L26.95 25.98L26.99 25.98L27.03 25.98L27.07 25.98L27.11 25.98L27.15 25.98L27.2 25.98L27.24 25.98L27.28 25.98L27.32 25.98L27.36 25.98L27.4 25.98L27.45 25.98L27.49 25.98L27.53 25.98L27.57 25.98L27.61 25.98L27.65 25.98L27.69 25.98L27.73 25.98L27.77 25.98L27.82 25.98L27.86 25.98L27.9 25.98L27.94 25.98L27.98 25.98L28.02 25.98L28.06 25.98L28.1 25.98L28.14 25.98L28.18 25.98L28.23 25.98L28.27 25.98L28.31 25.98L28.35 25.98L28.39 25.98L28.43 25.98L28.47 25.98L28.51 25.98L28.55 25.98L28.59 25.98L28.63 25.98L28.68 25.98L28.72 25.98L28.76 25.98L28.8 25.98L28.84 25.98L28.88 25.98L28.92 25.98L28.97 25.98L29.01 25.98L29.05 25.98L29.09 25.98L29.13 25.98L29.17 25.98L29.21 25.98L29.25 25.98L29.29 25.98L29.33 25.98L29.38 25.98L29.42 25.98L29.46 25.98L29.5 25.98L29.54 25.98L29.58 25.98L29.62 25.98L29.66 25.98L29.71 25.98L29.74 25.98L29.75 25.98L29.79 25.98C29.8 25.98 29.81 25.98 29.83 25.98L29.87 25.98L29.91 25.98C29.92 25.98 29.94 25.98 29.95 25.97C29.97 25.97 29.98 25.97 29.99 25.97L30.03 25.97C30.05 25.97 30.06 25.97 30.08 25.97C30.09 25.97 30.1 25.97 30.12 25.96C30.13 25.96 30.15 25.96 30.16 25.96C30.17 25.96 30.18 25.96 30.2 25.96C30.21 25.95 30.22 25.95 30.24 25.95C30.25 25.95 30.27 25.95 30.28 25.95C30.3 25.94 30.31 25.94 30.32 25.94L30.36 25.93L30.4 25.93L30.45 25.92C30.46 25.92 30.47 25.92 30.49 25.91C30.5 25.91 30.51 25.91 30.53 25.91L30.57 25.9L30.61 25.89C30.63 25.88 30.64 25.88 30.65 25.88C30.67 25.88 30.68 25.87 30.69 25.87L30.73 25.86L30.78 25.85L30.82 25.84C30.83 25.83 30.84 25.83 30.86 25.82C30.87 25.82 30.88 25.82 30.9 25.81C30.91 25.81 30.92 25.81 30.94 25.8L30.98 25.79C31 25.78 31.01 25.78 31.02 25.78L31.06 25.76C31.08 25.75 31.09 25.75 31.1 25.75C31.12 25.74 31.13 25.74 31.15 25.73C31.16 25.73 31.17 25.72 31.19 25.71L31.23 25.7C31.24 25.69 31.26 25.69 31.27 25.68C31.28 25.68 31.3 25.67 31.31 25.67C31.32 25.66 31.34 25.65 31.35 25.65C31.37 25.64 31.38 25.64 31.39 25.63C31.41 25.62 31.42 25.62 31.43 25.61C31.45 25.6 31.46 25.6 31.47 25.59L31.52 25.57L31.56 25.55C31.57 25.54 31.58 25.54 31.6 25.53C31.61 25.52 31.63 25.51 31.64 25.51C31.65 25.5 31.67 25.49 31.68 25.49C31.7 25.48 31.71 25.47 31.72 25.47C31.74 25.46 31.75 25.45 31.76 25.44C31.78 25.44 31.79 25.43 31.8 25.42C31.82 25.41 31.83 25.41 31.84 25.4C31.86 25.39 31.87 25.38 31.89 25.38L31.93 25.35C31.94 25.35 31.95 25.33 31.97 25.33C31.98 25.32 32 25.31 32.01 25.3C32.02 25.3 32.04 25.29 32.05 25.28C32.07 25.27 32.08 25.26 32.09 25.25C32.11 25.24 32.12 25.23 32.13 25.22C32.15 25.22 32.16 25.21 32.17 25.2C32.19 25.19 32.2 25.18 32.22 25.17C32.23 25.16 32.24 25.15 32.26 25.14C32.27 25.13 32.28 25.12 32.3 25.11C32.31 25.1 32.33 25.09 32.34 25.08C32.35 25.07 32.37 25.06 32.38 25.04C32.39 25.03 32.41 25.02 32.42 25.01C32.44 25 32.45 24.99 32.46 24.98C32.48 24.97 32.49 24.96 32.5 24.94C32.52 24.93 32.53 24.92 32.55 24.91C32.56 24.9 32.57 24.88 32.59 24.87C32.6 24.86 32.61 24.85 32.63 24.83C32.64 24.82 32.65 24.81 32.67 24.79C32.68 24.78 32.7 24.77 32.71 24.75C32.72 24.74 32.74 24.73 32.75 24.71C32.77 24.7 32.78 24.68 32.79 24.67C32.81 24.66 32.82 24.64 32.83 24.63C32.85 24.61 32.86 24.6 32.87 24.59C32.89 24.57 32.9 24.55 32.92 24.54C32.93 24.52 32.94 24.51 32.96 24.49C32.97 24.47 32.98 24.46 33 24.44C33.01 24.42 33.02 24.41 33.04 24.39C33.05 24.37 33.07 24.36 33.08 24.34C33.09 24.32 33.11 24.3 33.12 24.28C33.13 24.27 33.15 24.25 33.16 24.23C33.18 24.21 33.19 24.19 33.2 24.17C33.22 24.15 33.23 24.13 33.25 24.11C33.26 24.09 33.27 24.07 33.29 24.05C33.3 24.03 33.31 24.01 33.33 23.98C33.34 23.96 33.35 23.94 33.37 23.92C33.38 23.9 33.39 23.87 33.41 23.85C33.42 23.83 33.43 23.8 33.45 23.78C33.46 23.76 33.47 23.73 33.49 23.71C33.5 23.68 33.52 23.65 33.53 23.63C33.55 23.6 33.56 23.57 33.57 23.54C33.59 23.51 33.6 23.48 33.61 23.46C33.63 23.42 33.64 23.39 33.65 23.36C33.67 23.33 33.68 23.3 33.7 23.26C33.71 23.22 33.72 23.19 33.74 23.15C33.75 23.11 33.77 23.07 33.78 23.03C33.79 22.99 33.81 22.95 33.82 22.9C33.83 22.85 33.85 22.8 33.86 22.75C33.88 22.7 33.89 22.64 33.9 22.58C33.92 22.51 33.93 22.44 33.94 22.36C33.96 22.26 33.97 22.15 33.98 22.03C34 21.91 34 21.78 34 21.65L34 0.01L33.98 0.01ZM29.17 14.4C29.16 14.35 29.15 14.3 29.13 14.25C29.12 14.22 29.1 14.19 29.09 14.16C29.07 14.13 29.06 14.1 29.05 14.08C29.03 14.06 29.02 14.03 29.01 14.01C28.99 13.99 28.98 13.97 28.96 13.95C28.95 13.94 28.94 13.92 28.92 13.9C28.91 13.89 28.9 13.87 28.88 13.86C28.87 13.84 28.86 13.83 28.84 13.82C28.83 13.81 28.81 13.8 28.8 13.78C28.78 13.77 28.77 13.76 28.76 13.75C28.74 13.74 28.73 13.73 28.72 13.72C28.7 13.71 28.69 13.7 28.68 13.69C28.66 13.69 28.65 13.68 28.64 13.67C28.62 13.66 28.61 13.65 28.59 13.65C28.58 13.64 28.57 13.64 28.55 13.63C28.54 13.62 28.53 13.62 28.51 13.61C28.5 13.6 28.48 13.6 28.47 13.59C28.46 13.59 28.44 13.58 28.43 13.58C28.41 13.58 28.4 13.57 28.39 13.56C28.37 13.56 28.36 13.56 28.35 13.55L28.33 13.55C28.32 13.55 28.31 13.55 28.31 13.55C28.29 13.54 28.28 13.54 28.26 13.54C28.25 13.54 28.24 13.54 28.22 13.53C28.21 13.53 28.2 13.53 28.18 13.53C28.17 13.53 28.16 13.53 28.14 13.53C28.13 13.53 28.11 13.53 28.1 13.52C28.09 13.52 28.07 13.52 28.06 13.52L28.05 13.52L28.02 13.52L27.98 13.52L27.93 13.52L27.89 13.52L27.85 13.52L27.81 13.52L27.77 13.52L27.73 13.52L27.68 13.52L27.64 13.52L27.6 13.52L27.56 13.52L27.52 13.52L27.48 13.52L27.44 13.52L27.4 13.52L27.36 13.52L27.32 13.52L27.28 13.52L27.23 13.52L27.19 13.52L27.15 13.52L27.11 13.52L27.07 13.52L27.03 13.52L26.99 13.52L26.95 13.52L26.91 13.52L26.86 13.52L26.82 13.52L26.78 13.52L26.74 13.52L26.7 13.52L26.66 13.52L26.62 13.52L26.58 13.52L26.54 13.52L26.5 13.52L26.46 13.52L26.41 13.52L26.37 13.52L26.33 13.52L26.29 13.52L26.25 13.52L26.21 13.52L26.17 13.52L26.13 13.52L26.09 13.52L26.05 13.52L26 13.52L25.97 13.52L25.92 13.52L25.88 13.52L25.84 13.52L25.8 13.52L25.76 13.52L25.72 13.52L25.68 13.52L25.64 13.52L25.6 13.52L25.58 13.52L25.58 15.81L25.6 15.81L25.64 15.81L25.68 15.81L25.72 15.81L25.76 15.81L25.8 15.81L25.84 15.81L25.89 15.81L25.93 15.81L25.97 15.81L26.01 15.81L26.05 15.81L26.09 15.81L26.14 15.81L26.18 15.81L26.22 15.81L26.26 15.81L26.3 15.81L26.34 15.81L26.37 15.81L26.42 15.81L26.46 15.81L26.5 15.81L26.54 15.81L26.58 15.81L26.62 15.81L26.66 15.81L26.7 15.81L26.74 15.81L26.79 15.81L26.83 15.81L26.87 15.81L26.91 15.81L26.95 15.81L26.99 15.81L27.03 15.81L27.07 15.81L27.12 15.81L27.16 15.81L27.2 15.81L27.24 15.81L27.28 15.81L27.32 15.81L27.36 15.81L27.4 15.81L27.44 15.81L27.48 15.81L27.53 15.81L27.57 15.81L27.61 15.81L27.65 15.81L27.69 15.81L27.73 15.81L27.77 15.81L27.81 15.81L27.85 15.81L27.89 15.81L27.94 15.81L27.98 15.81L28.02 15.81L28.04 15.81L28.06 15.81C28.07 15.81 28.09 15.81 28.1 15.81C28.11 15.8 28.13 15.8 28.14 15.8C28.16 15.8 28.17 15.8 28.18 15.8C28.2 15.8 28.21 15.8 28.22 15.8C28.24 15.79 28.25 15.79 28.26 15.79C28.28 15.79 28.29 15.79 28.31 15.78C28.31 15.78 28.32 15.78 28.33 15.78L28.35 15.77C28.36 15.77 28.37 15.77 28.39 15.76C28.4 15.76 28.41 15.76 28.43 15.75C28.44 15.75 28.46 15.74 28.47 15.74C28.48 15.73 28.5 15.73 28.51 15.72C28.53 15.71 28.54 15.71 28.55 15.7C28.57 15.69 28.58 15.69 28.59 15.68C28.61 15.67 28.62 15.66 28.64 15.66C28.65 15.65 28.66 15.64 28.68 15.63C28.69 15.63 28.7 15.62 28.72 15.61C28.73 15.6 28.74 15.59 28.76 15.58C28.77 15.57 28.78 15.56 28.8 15.55C28.81 15.54 28.83 15.52 28.84 15.51C28.85 15.5 28.87 15.48 28.88 15.47C28.9 15.45 28.91 15.44 28.92 15.43C28.94 15.41 28.95 15.39 28.96 15.37C28.98 15.36 28.99 15.34 29.01 15.32C29.02 15.29 29.03 15.27 29.05 15.25C29.06 15.23 29.07 15.2 29.09 15.17C29.1 15.14 29.12 15.11 29.13 15.07C29.15 15.03 29.16 14.98 29.17 14.93C29.19 14.85 29.2 14.76 29.2 14.66C29.2 14.57 29.19 14.48 29.17 14.4ZM28.89 10.94C28.88 10.89 28.86 10.85 28.85 10.8C28.83 10.77 28.82 10.74 28.8 10.71C28.79 10.68 28.78 10.65 28.76 10.63C28.75 10.61 28.74 10.59 28.72 10.57C28.71 10.55 28.7 10.53 28.68 10.51C28.67 10.5 28.66 10.48 28.64 10.47C28.63 10.45 28.62 10.44 28.6 10.42C28.59 10.41 28.57 10.4 28.56 10.39C28.55 10.37 28.53 10.36 28.52 10.35C28.5 10.34 28.49 10.33 28.48 10.32C28.46 10.31 28.45 10.3 28.43 10.3C28.42 10.29 28.41 10.28 28.39 10.27C28.38 10.26 28.37 10.26 28.35 10.25C28.34 10.24 28.33 10.24 28.31 10.23C28.3 10.22 28.29 10.22 28.27 10.21C28.26 10.21 28.24 10.2 28.23 10.2C28.22 10.19 28.2 10.19 28.19 10.18C28.17 10.18 28.16 10.17 28.15 10.17C28.13 10.17 28.12 10.16 28.11 10.16C28.09 10.16 28.08 10.15 28.07 10.15L28.05 10.15C28.05 10.15 28.04 10.15 28.02 10.15C28.01 10.14 28 10.14 27.98 10.14C27.97 10.14 27.96 10.14 27.94 10.14C27.93 10.14 27.92 10.14 27.9 10.13C27.89 10.13 27.87 10.13 27.86 10.13L27.84 10.13L27.82 10.13L27.78 10.13L27.74 10.13L27.7 10.13L27.65 10.13L27.61 10.13L27.57 10.13L27.53 10.13L27.49 10.13L27.45 10.13L27.41 10.13L27.36 10.13L27.32 10.13L27.28 10.13L27.24 10.13L27.2 10.13L27.16 10.13L27.12 10.13L27.08 10.13L27.03 10.13L26.99 10.13L26.95 10.13L26.91 10.13L26.87 10.13L26.83 10.13L26.79 10.13L26.74 10.13L26.7 10.13L26.66 10.13L26.62 10.13L26.58 10.13L26.54 10.13L26.5 10.13L26.46 10.13L26.42 10.13L26.37 10.13L26.34 10.13L26.3 10.13L26.26 10.13L26.21 10.13L26.17 10.13L26.13 10.13L26.09 10.13L26.05 10.13L26.01 10.13L25.97 10.13L25.93 10.13L25.88 10.13L25.84 10.13L25.8 10.13L25.76 10.13L25.72 10.13L25.68 10.13L25.64 10.13L25.6 10.13L25.58 10.13L25.58 12.24L25.6 12.24L25.6 12.24L25.6 12.24L25.64 12.24L25.68 12.24L25.72 12.24L25.76 12.24L25.8 12.24L25.84 12.24L25.88 12.24L25.92 12.24L25.97 12.24L26 12.24L26.05 12.24L26.09 12.24L26.13 12.24L26.17 12.24L26.21 12.24L26.25 12.24L26.29 12.24L26.33 12.24L26.37 12.24L26.41 12.24L26.45 12.24L26.5 12.24L26.54 12.24L26.58 12.24L26.62 12.24L26.66 12.24L26.7 12.24L26.74 12.24L26.78 12.24L26.82 12.24L26.86 12.24L26.9 12.24L26.94 12.24L26.99 12.24L27.03 12.24L27.07 12.24L27.11 12.24L27.15 12.24L27.19 12.24L27.23 12.24L27.27 12.24L27.32 12.24L27.36 12.24L27.4 12.24L27.44 12.24L27.48 12.24L27.52 12.24L27.57 12.24L27.61 12.24L27.65 12.24L27.7 12.24L27.74 12.24L27.78 12.24L27.81 12.24L27.82 12.24C27.83 12.24 27.85 12.24 27.86 12.24C27.87 12.24 27.89 12.24 27.9 12.24C27.92 12.24 27.93 12.24 27.94 12.23C27.96 12.23 27.97 12.23 27.98 12.23C28 12.23 28.01 12.23 28.02 12.23C28.03 12.22 28.05 12.22 28.05 12.22L28.07 12.22C28.08 12.22 28.09 12.22 28.11 12.21C28.12 12.21 28.13 12.21 28.15 12.2C28.16 12.2 28.18 12.19 28.19 12.19C28.2 12.19 28.22 12.18 28.23 12.18C28.25 12.17 28.26 12.17 28.27 12.16C28.29 12.15 28.3 12.15 28.31 12.14C28.33 12.14 28.34 12.13 28.35 12.12C28.37 12.12 28.38 12.11 28.39 12.1C28.41 12.09 28.42 12.08 28.43 12.08C28.45 12.07 28.46 12.06 28.48 12.05C28.49 12.04 28.5 12.03 28.52 12.02C28.53 12.01 28.55 12 28.56 11.99C28.57 11.97 28.59 11.96 28.6 11.95C28.62 11.94 28.63 11.92 28.64 11.91C28.66 11.89 28.67 11.88 28.68 11.86C28.7 11.84 28.71 11.82 28.72 11.81C28.74 11.79 28.75 11.76 28.76 11.74C28.78 11.72 28.79 11.69 28.8 11.67C28.82 11.64 28.83 11.6 28.85 11.57C28.86 11.53 28.88 11.48 28.89 11.43C28.9 11.35 28.91 11.27 28.91 11.19C28.91 11.1 28.91 11.02 28.89 10.94Z" />
			</g>
		</g>
	</g>
</svg>