<svg xmlns="http://www.w3.org/2000/svg" viewBox="0 0 48 29" width="48" height="29">
	<style>
		tspan { white-space:pre }
		.shp0 { fill: #ffffff } 
	</style>
	<g id="Footer">
		<g id="Footer">
			<g id="Payment">
				<path id="Maestro" class="shp0" d="M46.96 22.31C46.92 22.24 46.87 22.18 46.79 22.14C46.72 22.1 46.64 22.08 46.56 22.08C46.48 22.08 46.41 22.1 46.33 22.14C46.26 22.18 46.2 22.24 46.16 22.31C46.12 22.39 46.1 22.47 46.1 22.55C46.1 22.63 46.12 22.71 46.16 22.78C46.2 22.85 46.26 22.91 46.33 22.95C46.41 22.99 46.48 23.02 46.56 23.02C46.64 23.02 46.72 22.99 46.79 22.95C46.87 22.91 46.92 22.85 46.96 22.78C47.01 22.71 47.03 22.63 47.03 22.55C47.03 22.47 47.01 22.39 46.96 22.31ZM46.72 22.72L46.62 22.72L46.56 22.57L46.5 22.57L46.5 22.72L46.42 22.72L46.42 22.33L46.58 22.33C46.6 22.33 46.64 22.33 46.68 22.35C46.7 22.37 46.72 22.41 46.72 22.45C46.72 22.49 46.7 22.53 46.66 22.55L46.72 22.72ZM46.6 22.41C46.6 22.4 46.56 22.4 46.54 22.4L46.5 22.4L46.5 22.5L46.56 22.5C46.56 22.5 46.58 22.5 46.6 22.49C46.62 22.48 46.62 22.47 46.62 22.45C46.62 22.43 46.62 22.42 46.6 22.41ZM33.63 0C29.92 0 26.54 1.42 23.99 3.75C21.44 1.42 18.07 0 14.36 0C14.33 0 14.3 0 14.27 0C6.38 0.05 -0.01 6.53 -0.01 14.5C-0.01 22.5 6.43 28.99 14.36 28.99C18.07 28.99 21.44 27.58 23.99 25.25C23.46 24.76 22.98 24.23 22.52 23.66L25.49 23.66C25.04 24.22 24.56 24.74 24.03 25.22L24.03 25.22C24.03 25.22 24.03 25.22 24.03 25.22C24.02 25.23 24.01 25.24 23.99 25.25C26.54 27.58 29.93 29 33.64 29C41.58 29 48.01 22.5 48 14.5C48 14.5 48 14.49 48 14.49C48 6.49 41.57 0 33.63 0ZM22.69 5.25L25.42 5.25C25.82 5.74 26.2 6.26 26.53 6.8L21.66 6.8C21.97 6.28 22.32 5.75 22.69 5.25ZM20.81 8.32L27.36 8.32C27.6 8.82 27.8 9.34 27.98 9.87L20.04 9.87C20.11 9.72 20.39 9.12 20.81 8.32ZM13.57 17.98L11.87 17.98L12.88 12.6L10.55 17.98L9 17.98L8.72 12.64L7.7 17.98L6.16 17.98L7.48 10.99L10.14 10.99L10.26 15.32L12.15 10.99L14.91 10.99L13.57 17.98ZM19.6 14.96L19.24 16.98L19.18 17.34L19.14 17.62L19.11 17.82L19.09 17.97L17.67 17.97L17.71 17.38C17.29 17.85 16.7 18.07 15.93 18.07C15.01 18.07 14.38 17.44 14.38 16.52C14.38 15.14 15.48 14.33 17.37 14.33C17.55 14.33 17.79 14.35 18.06 14.37C18.1 14.19 18.12 14.11 18.12 14.01C18.12 13.63 17.81 13.49 17.02 13.49C16.54 13.49 15.99 13.55 15.62 13.65L15.38 13.71L15.24 13.75L15.46 12.47C16.31 12.25 16.86 12.17 17.49 12.17C18.95 12.17 19.72 12.75 19.72 13.83C19.72 14.12 19.7 14.33 19.6 14.96ZM22.99 12.16C24.39 12.16 25.29 12.96 25.29 14.22C25.29 14.64 25.23 15.05 25.08 15.62L21.71 15.62C21.69 15.71 21.69 15.75 21.69 15.8C21.69 16.46 22.2 16.79 23.18 16.79C23.79 16.79 24.33 16.68 24.94 16.43L24.66 17.86C24.09 18.01 23.52 18.09 22.93 18.09C21.02 18.09 20.03 17.21 20.03 15.54C20.03 13.59 21.29 12.16 22.99 12.16ZM26.55 22.17L21.45 22.17C21.14 21.67 20.85 21.16 20.6 20.62L27.39 20.62C27.14 21.16 26.86 21.67 26.55 22.17ZM29.68 13.6C29.23 13.55 28.78 13.52 28.44 13.52C27.89 13.52 27.6 13.67 27.6 13.98C27.6 14.24 27.68 14.31 28.4 14.6C29.27 14.94 29.61 15.4 29.61 16.18C29.61 17.47 28.78 18.07 26.95 18.07C26.73 18.07 26.43 18.05 26.02 18.03C25.82 18.01 25.65 17.99 25.55 17.97L25.25 17.92L25.17 17.9L25.41 16.59C25.96 16.75 26.43 16.82 26.95 16.82C27.62 16.82 27.93 16.66 27.93 16.3C27.93 16.04 27.83 15.96 27.14 15.68C26.22 15.3 25.82 14.81 25.82 14.09C25.82 13.04 26.49 12.17 28.4 12.17C28.8 12.17 29.47 12.22 29.92 12.28L29.68 13.6ZM32.34 16.7C32.52 16.7 32.66 16.69 32.78 16.65L32.56 17.91C32.09 18.04 31.73 18.1 31.34 18.1C30.47 18.1 30 17.65 30 16.85C30 16.69 30.02 16.52 30.04 16.34L30.14 15.78L30.22 15.33L31.02 10.99L32.7 10.99L32.46 12.3L33.33 12.3L33.09 13.68L32.21 13.68L31.77 16.05C31.75 16.15 31.75 16.23 31.75 16.28C31.75 16.58 31.93 16.7 32.34 16.7ZM36.49 13.89C35.68 13.89 35.42 14.5 34.81 17.98L33.1 17.98L34.14 12.3L35.68 12.3L35.52 13.16C36.05 12.49 36.45 12.24 37 12.24C37.06 12.24 37.12 12.24 37.18 12.25C37.18 12.25 37.24 12.26 37.33 12.28C37.35 12.29 37.37 12.29 37.51 12.35L36.9 13.95L36.7 13.91C36.62 13.9 36.56 13.89 36.49 13.89ZM39.5 18.13C37.57 18.13 36.8 16.95 36.8 15.51C36.8 13.5 38.12 12.13 40.15 12.13C41.92 12.13 42.85 13.25 42.85 14.69C42.85 15.05 42.85 15.07 42.81 15.4C42.55 17.29 41.25 18.13 39.5 18.13ZM43 17.98C42.75 17.98 42.55 17.78 42.55 17.53C42.55 17.29 42.75 17.09 43 17.09C43.24 17.09 43.44 17.29 43.44 17.53C43.44 17.78 43.24 17.98 43 17.98ZM43 17.19C42.81 17.19 42.65 17.35 42.65 17.53C42.65 17.72 42.81 17.87 43 17.87C43.18 17.87 43.32 17.72 43.32 17.53C43.32 17.35 43.18 17.19 43 17.19ZM43.16 17.73L43.05 17.73L42.99 17.57L42.93 17.57L42.93 17.73L42.85 17.73L42.85 17.34L43.01 17.34C43.03 17.34 43.08 17.34 43.12 17.36C43.14 17.38 43.16 17.42 43.16 17.46C43.16 17.5 43.14 17.54 43.1 17.56L43.16 17.73ZM43.03 17.41C43.04 17.41 43 17.41 42.98 17.41L42.93 17.41L42.93 17.51L42.99 17.51C42.99 17.51 43.01 17.51 43.03 17.5C43.06 17.49 43.06 17.47 43.06 17.45C43.06 17.44 43.06 17.42 43.03 17.41ZM22.97 13.46C22.43 13.46 22.04 13.82 21.88 14.48L23.77 14.48C23.77 14.36 23.77 14.26 23.77 14.19C23.77 13.72 23.48 13.46 22.97 13.46ZM17.47 15.42C16.52 15.42 16.03 15.71 16.03 16.29C16.03 16.64 16.25 16.87 16.64 16.87C17.33 16.87 17.82 16.29 17.86 15.44C17.67 15.43 17.59 15.42 17.47 15.42ZM40.11 13.52C39.24 13.52 38.71 14.56 38.71 15.47C38.71 16.24 39.07 16.76 39.68 16.75C40.05 16.75 40.84 16.24 40.98 15.35C41.02 15.15 41.04 14.92 41.04 14.67C41.04 14.08 40.8 13.52 40.11 13.52Z" />
			</g>
		</g>
	</g>
</svg>