<svg xmlns="http://www.w3.org/2000/svg" viewBox="0 0 42 26" width="42" height="26">
	<style>
		tspan { white-space:pre }
		.shp0 { fill: #ffffff } 
	</style>
	<g id="Footer">
		<g id="Footer">
			<g id="Payment">
				<path id="Mastercard" class="shp0" d="M28.91 -0.02C26.04 -0.02 23.27 0.91 21 2.62C18.73 0.91 15.96 -0.02 13.09 -0.02C5.87 -0.02 0 5.82 0 13C0 20.18 5.87 26.02 13.09 26.02C15.96 26.02 18.73 25.09 21 23.38C23.27 25.09 26.04 26.02 28.91 26.02C36.13 26.02 42 20.18 42 13C42 5.82 36.13 -0.02 28.91 -0.02ZM21 5.94C21.41 6.39 21.77 6.87 22.1 7.38L19.9 7.38C20.23 6.87 20.59 6.39 21 5.94ZM18.76 9.83L23.24 9.83C23.44 10.46 23.58 11.11 23.65 11.78L18.35 11.78C18.42 11.11 18.56 10.46 18.76 9.83ZM18.35 14.22L23.65 14.22C23.58 14.89 23.44 15.54 23.24 16.17L18.76 16.17C18.56 15.54 18.42 14.89 18.35 14.22ZM21 20.06C20.59 19.61 20.23 19.13 19.9 18.62L22.1 18.62C21.77 19.13 21.41 19.61 21 20.06ZM28.91 23.57C26.73 23.57 24.62 22.91 22.84 21.68C23.86 20.56 24.68 19.25 25.24 17.85C25.87 16.31 26.18 14.68 26.18 13C26.18 11.32 25.87 9.69 25.24 8.15C24.68 6.75 23.86 5.44 22.84 4.32C24.62 3.09 26.73 2.43 28.91 2.43C34.77 2.43 39.54 7.17 39.54 13C39.54 18.83 34.77 23.57 28.91 23.57Z" />
			</g>
		</g>
	</g>
</svg>