<svg xmlns="http://www.w3.org/2000/svg" viewBox="0 0 50 14" width="50" height="14">
	<style>
		tspan { white-space:pre }
		.shp0 { fill: #ffffff } 
	</style>
	<g id="Footer">
		<g id="Footer">
			<g id="Payment">
				<path id="Paypal" class="shp0" d="M9 2.29C8.84 1.95 8.58 1.67 8.26 1.46C7.92 1.25 7.52 1.1 7.07 1.02C6.61 0.93 6.08 0.89 5.47 0.89L2.62 0.89C2.33 0.89 2.04 1.13 1.97 1.42L0.06 10.02C-0.01 10.31 0.17 10.55 0.47 10.55L1.83 10.55C2.13 10.55 2.42 10.31 2.48 10.02L2.95 7.93C3.01 7.64 3.3 7.4 3.6 7.4L3.99 7.4C5.66 7.39 6.94 7.04 7.87 6.34C8.8 5.64 9.26 4.71 9.26 3.56C9.26 3.05 9.18 2.63 9 2.29ZM6.06 5.1C5.65 5.41 5.08 5.57 4.34 5.57L4.01 5.57C3.71 5.57 3.53 5.32 3.6 5.03L4.01 3.21C4.06 2.91 4.36 2.67 4.65 2.67L5.1 2.67C5.62 2.67 6.02 2.76 6.28 2.94C6.55 3.12 6.68 3.4 6.68 3.78C6.68 4.35 6.47 4.79 6.06 5.1ZM47.79 1.56L47.71 1.59L47.59 1.6L47.45 1.58L47.38 1.51L47.35 1.4L47.35 1.23L47.35 0.6L47.8 0.6L47.8 0.41L47.35 0.41L47.35 0.02L47.12 0.02L47.12 0.41L46.97 0.41L46.97 0.6L47.12 0.6L47.12 1.33L47.23 1.69L47.54 1.8L47.67 1.79L47.8 1.76L47.8 1.56L47.79 1.56ZM49.9 0.51L49.58 0.37L49.34 0.42L49.09 0.59L48.95 0.43L48.72 0.37L48.5 0.42L48.29 0.56L48.29 0.41L48.07 0.41L48.07 1.77L48.29 1.77L48.29 0.75L48.48 0.64L48.66 0.59L48.81 0.62L48.89 0.69L48.92 0.83L48.93 0.99L48.93 1.77L49.15 1.77L49.15 0.9L49.15 0.83L49.14 0.76L49.33 0.64L49.52 0.59L49.66 0.62L49.74 0.7L49.77 0.83L49.78 1L49.78 1.78L50.01 1.78L50.01 0.89L49.9 0.51ZM15.56 3.52C15.05 3.22 14.24 3.07 13.13 3.07C12.58 3.07 12.03 3.12 11.48 3.2C11.07 3.27 11.04 3.28 10.78 3.34C10.27 3.45 10.19 3.99 10.19 3.99L10.02 4.69C9.93 5.14 10.18 5.13 10.28 5.09C10.51 5.02 10.63 4.95 11.1 4.84C11.54 4.74 12 4.66 12.37 4.67C12.91 4.67 13.33 4.73 13.61 4.85C13.88 4.97 14.02 5.18 14.02 5.48L13.99 5.68L13.8 5.81C13.03 5.86 12.47 5.93 11.79 6.03C11.13 6.13 10.55 6.29 10.07 6.52C9.55 6.76 9.16 7.07 8.89 7.47C8.63 7.88 8.5 8.37 8.5 8.94C8.5 9.48 8.69 9.93 9.06 10.28C9.43 10.62 9.91 10.78 10.49 10.78C10.86 10.78 11.15 10.75 11.35 10.7L12.01 10.47L12.56 10.15L13.08 9.8L13.08 9.81L13.03 10.03L13.03 10.04L13.03 10.04C12.98 10.32 13.14 10.54 13.39 10.57L13.4 10.58L13.42 10.58L14.47 10.58L14.66 10.58L14.68 10.57C14.95 10.53 15.21 10.31 15.27 10.04L16.26 5.61L16.31 5.25L16.33 4.91C16.34 4.28 16.08 3.82 15.56 3.52ZM13.37 8.5L13.15 8.79L12.62 9.08C12.37 9.18 12.13 9.23 11.91 9.23C11.57 9.23 11.31 9.18 11.13 9.08L10.87 8.56C10.87 8.27 10.93 8.04 11.07 7.87L11.65 7.47C11.89 7.38 12.19 7.31 12.54 7.26C12.85 7.22 13.47 7.14 13.55 7.14L13.64 7.31C13.62 7.41 13.45 8.16 13.37 8.5ZM40.28 3.53C39.76 3.23 38.95 3.08 37.85 3.08C37.3 3.08 36.75 3.12 36.2 3.21C35.79 3.27 35.75 3.29 35.5 3.34C34.98 3.46 34.9 3.99 34.9 3.99L34.74 4.7C34.64 5.15 34.89 5.13 35.01 5.09C35.23 5.02 35.35 4.96 35.81 4.85C36.25 4.74 36.72 4.67 37.09 4.67C37.63 4.67 38.05 4.73 38.32 4.85C38.6 4.97 38.74 5.19 38.74 5.49L38.71 5.69L38.52 5.81C37.74 5.86 37.18 5.93 36.51 6.04C35.85 6.13 35.27 6.3 34.78 6.53C34.27 6.76 33.88 7.08 33.61 7.48C33.35 7.89 33.22 8.37 33.22 8.94C33.22 9.49 33.41 9.94 33.78 10.28C34.15 10.62 34.63 10.79 35.21 10.79C35.58 10.78 35.86 10.76 36.06 10.7L36.72 10.47L37.28 10.15L37.79 9.8L37.8 9.81L37.76 10.04L37.75 10.04L37.75 10.05C37.69 10.32 37.85 10.55 38.11 10.57L38.12 10.58L38.14 10.58C38.31 10.58 38.9 10.58 39.19 10.58L39.38 10.58L39.4 10.57C39.67 10.54 39.92 10.31 39.98 10.04L40.97 5.62L41.03 5.25L41.06 4.91C41.06 4.29 40.8 3.82 40.28 3.53ZM38.09 8.51L37.87 8.8L37.34 9.08C37.09 9.19 36.85 9.24 36.63 9.24C36.28 9.24 36.03 9.19 35.85 9.09L35.59 8.56C35.59 8.28 35.65 8.05 35.78 7.88C35.92 7.71 36.12 7.57 36.37 7.47C36.61 7.39 36.91 7.32 37.26 7.27C37.57 7.23 38.18 7.15 38.26 7.15L38.36 7.32C38.35 7.42 38.17 8.17 38.09 8.51ZM33.71 2.32C33.54 1.98 33.29 1.71 32.96 1.49C32.63 1.28 32.24 1.13 31.78 1.05C31.33 0.96 30.79 0.92 30.18 0.92L27.33 0.92C27.04 0.92 26.75 1.16 26.68 1.45L24.77 10.05C24.7 10.34 24.89 10.58 25.18 10.58L26.54 10.58C26.83 10.58 27.13 10.34 27.2 10.05L27.66 7.96C27.73 7.67 28.02 7.43 28.31 7.43L28.7 7.43C30.37 7.43 31.66 7.07 32.59 6.37C33.51 5.66 33.97 4.74 33.97 3.58C33.97 3.08 33.88 2.66 33.71 2.32ZM30.78 5.14C30.37 5.44 29.79 5.6 29.06 5.6L28.72 5.6C28.43 5.6 28.24 5.35 28.31 5.06L28.72 3.24C28.78 2.95 29.07 2.7 29.37 2.71L29.81 2.7C30.33 2.71 30.72 2.8 30.99 2.98C31.26 3.16 31.38 3.44 31.39 3.81C31.39 4.38 31.19 4.82 30.78 5.14ZM45.38 1.52C45.44 1.23 45.26 0.99 44.97 0.99L43.75 0.99C43.5 0.99 43.28 1.18 43.17 1.42L43.1 1.53L43.04 1.81L41.34 9.8L41.28 10.04L41.28 10.05C41.23 10.31 41.38 10.51 41.62 10.55L41.65 10.58L42.91 10.58C43.16 10.58 43.39 10.38 43.5 10.14L43.56 10.04L45.38 1.52L45.38 1.52ZM24.81 3.18C24.49 3.18 23.18 3.18 23.18 3.18C22.88 3.18 22.51 3.42 22.32 3.72C22.32 3.72 20.37 7.17 20.18 7.51L19.96 7.51L19.35 3.74C19.28 3.44 18.98 3.19 18.61 3.19L17.39 3.19C17.1 3.19 16.92 3.43 16.98 3.73C16.98 3.73 17.91 9.16 18.09 10.44C18.18 11.15 18.08 11.27 18.08 11.27L16.88 13.44C16.7 13.73 16.79 13.97 17.09 13.97L18.5 13.97C18.79 13.97 19.18 13.73 19.35 13.44L24.77 3.98C24.77 3.98 25.29 3.17 24.81 3.18Z" />
			</g>
		</g>
	</g>
</svg>