<svg xmlns="http://www.w3.org/2000/svg" viewBox="0 0 48 15" width="48" height="15">
	<style>
		tspan { white-space:pre }
		.shp0 { fill: #ffffff } 
	</style>
	<g id="Footer">
		<g id="Footer">
			<g id="Payment">
				<path id="Visa" class="shp0" d="M19.22 0.26L16.78 14.76L20.68 14.76L23.12 0.26L19.22 0.26ZM13.51 0.28L9.69 10.17L9.28 8.68C8.53 6.88 6.39 4.29 3.88 2.66L7.37 14.76L11.5 14.75L17.64 0.28L13.51 0.28ZM7.8 1.32C7.57 0.43 6.92 0.17 6.1 0.14L0.05 0.14L0 0.43C4.71 1.58 7.82 4.37 9.12 7.72L7.8 1.32ZM31.03 3.04C32.31 3.02 33.23 3.31 33.95 3.6L34.3 3.77L34.83 0.62C34.06 0.33 32.85 0.01 31.33 0.01C27.48 0.01 24.76 1.98 24.74 4.8C24.72 6.88 26.68 8.05 28.16 8.74C29.68 9.45 30.19 9.9 30.18 10.54C30.17 11.51 28.97 11.95 27.85 11.95C26.29 11.95 25.46 11.74 24.17 11.2L23.67 10.96L23.12 14.21C24.04 14.61 25.72 14.96 27.47 14.98C31.57 14.98 34.23 13.04 34.26 10.03C34.28 8.38 33.24 7.12 30.98 6.09C29.62 5.42 28.79 4.97 28.79 4.29C28.79 3.69 29.5 3.04 31.03 3.04ZM44.84 0.28L41.83 0.28C40.89 0.28 40.19 0.54 39.78 1.48L33.99 14.77L38.09 14.77C38.09 14.77 38.75 12.99 38.91 12.59C39.35 12.59 43.33 12.6 43.9 12.6C44.02 13.11 44.38 14.77 44.38 14.77L48 14.77L44.84 0.28ZM40.03 9.63C40.35 8.79 41.58 5.57 41.58 5.57C41.56 5.61 41.9 4.73 42.1 4.19L42.37 5.44C42.37 5.44 43.11 8.9 43.27 9.63L40.03 9.63Z" />
			</g>
		</g>
	</g>
</svg>